<!DOCTYPE svg PUBLIC '-//W3C//DTD SVG 1.1//EN' 'http://www.w3.org/Graphics/SVG/1.1/DTD/svg11.dtd'>
<svg xmlns="http://www.w3.org/2000/svg" viewBox="51 58 230 216">
  <g id="rawfunkmaharishi">
    <g id="raw">
      <g id="r0">
        <path fill-rule="evenodd" d="M102.4 100.8l5 8.6h18.1L117.8 96c4.7-3.9 7.7-9.8 7.7-16.4 0-11.7-9.5-21.2-21.2-21.2H84.8v11.8l17.6 30.6zm-1.3-26h3.3c2.7 0 4.8 2.2 4.8 4.8 0 2.7-2.2 4.8-4.8 4.8h-3.3v-9.6z"/>
        <path d="M101.1 104.8L84.8 76.5v32.8h16.3v-4.5z"/>
      </g>
      <path id="a0" d="M129.1 109.4h3.5l11.3-19.5 11.3 19.5h18.1l-29.4-50.9-22.1 38.2 7.3 12.7z"/>
      <path id="w" d="M188.1 89.9l11.3 19.5 29.4-50.9h-18.1L199.4 78l-11.3-19.5L176.9 78l-11.3-19.5h-18.1l29.4 50.9 11.2-19.5z"/>
    </g>
    <g id="funk">
      <path id="f" d="M101.1 145h11l7.2-12.6h-18.2v-3.5h20.3l9.4-16.3h-46v50.9h16.3V145z"/>
      <path id="u" d="M115.8 144.8c1.2 10.5 10.1 18.7 21 18.7 11.7 0 21.2-9.5 21.2-21.2v-29.8h-16.3v29.8c0 2.7-2.2 4.8-4.8 4.8-2.7 0-4.8-2.2-4.8-4.8v-25.6l-16.3 28.1z"/>
      <path id="n" d="M201.9 112.5h-16.3v21.1l-24.4-21.1v50.9h16.3v-16.2l24.4 21.3v-56z"/>
      <g id="k">
        <path d="M221.4 112.5H205v50.9h16.4V152l4.2-4.8 29.7-34.3.4-.5H234l-12.6 15.2v-15.1z"/>
        <path d="M256.5 163.4l-19.4-24.8-10.2 11.8 9.7 13h19.9z"/>
      </g>
    </g>
    <g id="maha">
      <path id="m" d="M114.7 217.5h18.1l-29.4-50.9-11.3 19.5-11.3-19.5-29.4 50.9h18.1L80.9 198l11.3 19.5 11.3-19.5 11.2 19.5z"/>
      <g id="ah">
        <path d="M193 217.5v-50.9h-16.3v20.2h-10.5v-20.2h-16.3v43.2l-25-43.2-9.1 15.7 20.3 35.2h30v-14.3h6.2l4.3-7.5v21.8H193zM104 204.7l-7.4 12.8h14.8l-7.4-12.8z"/>
      </g>
      <path id="a2" d="M217.6 217.5h18.1l-29.4-50.9-10.2 17.6v31.4l10.2-17.6 11.3 19.5z"/>
    </g>
    <g id="rishi">
      <g id="r1">
        <path fill-rule="evenodd" d="M146.8 241.8c0-11.7-9.5-21.2-21.2-21.2H106v11.8l17.6 30.5 5 8.6h18.1l-7.7-13.4c4.8-3.8 7.8-9.7 7.8-16.3zm-21.2 4.8h-3.3V237h3.3c2.7 0 4.8 2.2 4.8 4.8.1 2.7-2.1 4.8-4.8 4.8z"/>
        <path d="M106.1 271.6h16.3V267l-16.3-28.3v32.9z"/>
      </g>
      <path id="i0" d="M149.9 271.6h16.3v-50.9h-16.3v50.9z"/>
      <path id="s" d="M186.6 235.9c0-1.3.8-2.3 3.8-2.3 4.7 0 10.4 1.7 14.7 5l8.1-10.9c-5.7-4.7-13.1-7.1-21.3-7.1-13.7 0-20.8 8.2-20.8 16.9 0 20.1 27.9 15.1 27.9 20 0 2-2.7 2.7-5.6 2.7-6.8 0-12.4-2.9-16.2-6.6l-7.9 11.5c5.3 4.9 12.6 8.1 23.3 8.1 13.4 0 21.6-6.5 21.6-17.7.3-18.9-27.6-14.8-27.6-19.6z"/>
      <path id="h" d="M244.4 240.9h-10.5v-20.2h-16.3v50.9h16.3v-14.3h6.2l4.3-7.5v21.8h16.3v-50.9h-16.3v20.2z"/>
      <path id="i1" d="M263.9 220.7v50.9h16.3v-50.9h-16.3z"/>
    </g>
  </g>
</svg>
