<?xml version="1.0" encoding="utf-8"?>
<!-- Generator: Adobe Illustrator 16.0.0, SVG Export Plug-In . SVG Version: 6.00 Build 0)  -->
<!DOCTYPE svg PUBLIC "-//W3C//DTD SVG 1.1//EN" "http://www.w3.org/Graphics/SVG/1.1/DTD/svg11.dtd">
<svg version="1.1" id="Layer_1" xmlns="http://www.w3.org/2000/svg" xmlns:xlink="http://www.w3.org/1999/xlink" x="0px" y="0px"
	 width="363.445px" height="363.445px" viewBox="0 0 363.445 363.445" enable-background="new 0 0 363.445 363.445"
	 xml:space="preserve">
<g id="XMLID_102_">
	<g id="XMLID_147_">
		<g id="XMLID_252_" opacity="0.25">
			<path id="XMLID_101_" fill-rule="evenodd" clip-rule="evenodd" d="M72.111,317.048c-0.568,0-1.025,0.977-1.025,2.18
				c0,1.184,0.457,2.164,1.025,2.164c0.566,0,1.023-0.98,1.023-2.164C73.135,318.025,72.678,317.048,72.111,317.048z"/>
			<path id="XMLID_100_" fill-rule="evenodd" clip-rule="evenodd" d="M78.959,300.083c-0.457,0-0.826,0.746-0.826,1.68
				s0.369,1.695,0.826,1.695c0.459,0,0.832-0.762,0.832-1.695S79.418,300.083,78.959,300.083z"/>
			<path id="XMLID_99_" fill-rule="evenodd" clip-rule="evenodd" d="M287.799,298.455c-0.842,0-1.525,1.254-1.525,2.805
				c0,1.555,0.684,2.816,1.525,2.816c0.848,0,1.527-1.262,1.527-2.816C289.326,299.708,288.646,298.455,287.799,298.455z"/>
			<path id="XMLID_98_" fill-rule="evenodd" clip-rule="evenodd" d="M298.016,276.462c-0.684,0-1.236,0.98-1.236,2.191
				c0,1.203,0.553,2.191,1.236,2.191s1.236-0.988,1.236-2.191C299.252,277.443,298.699,276.462,298.016,276.462z"/>
			<path id="XMLID_97_" fill-rule="evenodd" clip-rule="evenodd" d="M144.197,289.767c-0.711,0-1.285,1.078-1.285,2.406
				c0,1.336,0.574,2.422,1.285,2.422c0.707,0,1.279-1.086,1.279-2.422C145.477,290.845,144.904,289.767,144.197,289.767z"/>
			<path id="XMLID_96_" fill-rule="evenodd" clip-rule="evenodd" d="M152.77,270.892c-0.572,0-1.037,0.84-1.037,1.875
				c0,1.039,0.465,1.883,1.037,1.883c0.574,0,1.039-0.844,1.039-1.883C153.809,271.732,153.344,270.892,152.77,270.892z"/>
			<path id="XMLID_95_" fill-rule="evenodd" clip-rule="evenodd" d="M307.578,184.564c-1.955-2.031-2.787-4.421-2.787-7.991
				c0-2.221,0.533-5.015,1.047-7.715c0.52-2.732,1.012-5.314,1.012-7.571c0-6.258-4.021-8.479-7.467-8.479
				c-0.564,0-1.162,0.055-1.771,0.166c-3.535,0.644-7.762,2.919-9.504,3.919c-1.789-0.982-3.707-1.25-5.234-1.25
				c-0.893,0-1.855,0.091-2.852,0.271c-1.102,0.2-2.266,0.6-3.445,1.169c0.086-1.906,0.174-3.664,0.25-5.275
				c0.201-4.038,0.357-7.229,0.357-9.922c0-4.96-0.986-8.973-2.943-11.925c-1.719-2.604-5.053-5.705-11.131-5.705
				c-1.145,0-2.363,0.115-3.619,0.341c-2.477,0.448-5.012,1.481-7.244,2.987c0.447-1.169,0.703-2.346,0.703-3.504
				c0-3.815-2.791-7.663-9.035-7.663c-0.736,0-1.512,0.047-2.342,0.145c0.082-1.747,0.137-3.34,0.137-4.788
				c0-3.899-2.691-6.732-6.412-6.732c-0.689,0-1.393,0.097-2.145,0.294c-3.24,0.822-6.922,3.664-7.977,4.515
				c-1.816,1.474-2.377,4.01-1.342,6.11c0.117,0.235,0.695,1.693,0.695,7.279c0,0.1,0,0.189,0,0.288
				c-0.258-0.021-0.492-0.03-0.676-0.03c-0.918,0-1.871,0.127-2.904,0.39c-0.533,0.14-1.082,0.34-1.643,0.595
				c-1.809-2.443-4.59-3.587-7.357-3.587c-0.936,0-1.895,0.126-2.857,0.374c-4.02,1.034-8.193,4.304-9.594,8.868
				c-0.977-1.236-2.266-2.186-3.789-2.771c3-5.197,4.262-8.63,4.262-11.554c0-3.767-2.406-8.167-9.182-8.167
				c-0.432,0-0.9,0.026-1.371,0.061c0.303-1.188,0.463-2.359,0.463-3.437c0-6.138-4.215-10.427-10.246-10.427
				c-0.84,0-1.723,0.083-2.625,0.246c-4.387,0.793-9.844,3.962-16.16,7.632c-0.764,0.443-1.535,0.893-2.309,1.337
				c-2.762-2.155-6.25-3.335-10.055-3.335c-1.068,0-2.145,0.095-3.195,0.287c-7.131,1.287-12.111,6.507-12.111,12.693
				c0,1.635,0.445,3.313,1.367,4.807c-1.291,0.623-2.402,1.473-3.33,2.503c-0.646-0.203-1.344-0.315-2.086-0.315
				c-0.277,0-0.561,0.015-0.85,0.044c-1.525-1.539-3.502-2.389-5.727-2.389c-0.518,0-1.049,0.047-1.578,0.144
				c-0.074,0.014-0.145,0.041-0.219,0.055c0-0.073,0.01-0.147,0.01-0.222c0-6.88-4.906-11.504-12.209-11.504
				c-1.182,0-2.439,0.12-3.736,0.354c-11.553,2.088-30.717,16.781-30.717,28.736c0,2.947,0.857,5.064,2.141,6.518
				c0.428,1.08,0.684,2.559,0.684,4.688c0,1.917-0.078,11.103-0.174,21.473c-4.295,0.997-7.902,3.269-9.986,6.354
				c-1.174,1.744-1.137,4.035,0.092,5.737c0.436,0.6,1.232,1.962,2.629,5.025c-4.203,17.324-6.621,26.18-7.938,31.004
				c-1.773,6.504-1.959,7.18-1.959,11.902c0,2.367,0.885,9.758,11.65,10.629c0.143,0.949,0.221,2.047,0.221,3.348
				c0,5.68-0.555,63.77-0.668,67.445c-0.109,3.672,3.229,6.457,2.111-2.781c-1.031-8.59-0.143-58.121,0.885-67.934
				c1.422-0.016,2.932-0.129,4.516-0.336c0.094,0.93,0.129,2.043,0.129,3.387c0,4.418-0.451,49.613-0.541,52.473
				c-0.09,2.855,2.611,5.02,1.713-2.164c-0.646-5.141-0.367-29.113,0.172-43.395c1.846,4.754,6.104,7.688,11.738,7.688
				c1.057,0,2.172-0.102,3.312-0.309c5.979-1.082,12.979-5.66,20.387-10.504c0.098-0.062,0.191-0.129,0.289-0.191
				c4.932,3.301,10.861,4.977,17.68,4.977c2.846,0,5.908-0.293,9.1-0.871c0.236-0.043,0.453-0.102,0.684-0.148
				c-0.176,15.711-0.354,30.07-0.418,31.922c-0.139,4.086,4.041,7.184,2.646-3.09c-0.541-3.988-0.66-15.902-0.525-29.23
				c2.729-0.734,5.068-1.809,7.029-3.109c-0.115,9.547-0.221,17.352-0.264,18.539c-0.113,3.18,3.271,5.59,2.143-2.41
				c-0.357-2.527-0.488-9.168-0.465-17.152c0.426-0.34,0.834-0.688,1.217-1.051c0.812,0.535,1.77,0.828,2.75,0.828
				c0.473,0,0.953-0.066,1.422-0.207c2.338-0.691,4.906-1.629,7.848-2.863c7.969-3.41,22.4-7.285,36.805-9.891
				c13.207-2.387,25.762-3.648,36.303-3.648c15.072,0,33.193,2.48,33.916,14.312c0.096,1.566,0.922,3,2.23,3.871
				c0.832,0.551,1.801,0.836,2.775,0.836c0.557,0,1.119-0.094,1.658-0.285c0.168-0.059,2.84-1.004,6.383-2.656
				c-0.234,20.906-0.496,41.984-0.578,44.426c-0.17,4.758,4.809,8.367,3.148-3.602c-0.746-5.41-0.82-23.344-0.521-41.816
				c1.246-0.625,2.551-1.316,3.857-2.078c1.656-0.961,3.16-1.945,4.525-2.945c-0.176,14.934-0.361,29.008-0.426,30.758
				c-0.133,3.711,3.896,6.508,2.555-2.801c-0.561-3.887-0.656-16.078-0.477-29.234c5.143-4.203,7.744-8.688,7.744-13.383
				c0-4.273-1.336-9.812-6.99-14.074c0.314-7.109,0.691-12.273,1.064-13.305c0.102-0.281,0.23-0.52,0.371-0.742
				c3.4-1.164,5.576-2.352,5.715-2.43c1.355-0.754,2.287-2.098,2.516-3.637C309.154,187.236,308.658,185.681,307.578,184.564z
				 M82.486,144.084c0.043,0,0.088-0.001,0.131-0.002c0.027,0.465,0.041,0.982,0.045,1.555c-0.023,0.335-0.045,0.67-0.07,1.004
				c-0.156,2.159-0.305,4.199-0.305,6.03c0,1.302,0.111,2.422,0.301,3.4c-0.014,1.492-0.031,3.076-0.047,4.723
				c-0.055,0.137-0.115,0.272-0.16,0.417c-0.473,1.486-0.723,3.007-0.723,4.396c0,0.488,0.035,0.961,0.088,1.428
				c-0.088-0.003-0.174-0.01-0.262-0.01c-1.17,0-2.365,0.112-3.562,0.319c0.205-10.622,0.559-20.548,0.932-24.015
				C80.025,143.851,81.287,144.084,82.486,144.084z M195.064,213.63c-1.633,0.395-3.141,0.777-4.543,1.137
				c1.162-0.715,2.266-1.594,3.312-2.68C194.221,212.662,194.635,213.169,195.064,213.63z M218.391,157.666
				c0.58,0.528,1.195,0.914,1.807,1.213c-0.781,1.039-1.52,2.204-2.213,3.505c-0.15-0.113-0.311-0.21-0.471-0.315
				c-0.002-1.304,0.004-2.676,0.012-4.087C217.814,157.876,218.09,157.783,218.391,157.666z M241.963,202.951
				c0.033,0,0.062,0,0.098,0c1.283,0,2.662-0.125,4.094-0.387c3.516-0.633,6.848-2.141,9.68-4.188
				c0.518,1.934,1.367,3.332,2.375,4.34c-5.184,0.391-10.799,1.027-16.83,1.895C241.666,204.103,241.867,203.544,241.963,202.951z
				 M242.824,155.667c-1.15,0.569-2.252,1.227-3.287,1.963c-0.861-1.848-2.266-3.25-4.074-4.074c0.99-0.315,2.09-0.719,3.346-1.233
				C239.998,153.573,241.33,154.723,242.824,155.667z M216.584,161.502c-0.834-0.451-1.707-0.808-2.609-1.052
				c0.68-0.778,1.102-1.418,1.279-1.714c0.432-0.126,0.889-0.27,1.361-0.429C216.604,159.397,216.592,160.463,216.584,161.502z
				 M94.32,186.849c-0.488-2.912-1.014-6.492-1.553-10.854c0.574-0.037,1.16-0.097,1.76-0.204c0.756-0.136,1.535-0.374,2.32-0.652
				c0.008,0.145,0.014,0.293,0.021,0.442C96.064,180.139,95.184,183.845,94.32,186.849z M164.465,173.552
				c-0.264,0.112-0.527,0.229-0.791,0.358c0.035-0.826,0.072-1.612,0.109-2.383C163.955,172.189,164.18,172.877,164.465,173.552z
				 M178.705,177.266c-0.277-0.49-0.578-0.934-0.898-1.33c1.637-0.793,2.988-1.587,3.635-1.983c0.053-0.03,0.098-0.07,0.15-0.104
				C180.545,174.882,179.584,176.032,178.705,177.266z M139.764,161.493c0.018-0.009,0.037-0.018,0.057-0.027
				c1.318-0.79,2.25-1.073,2.799-1.173c0.094-0.017,0.17-0.025,0.227-0.03c0.35,0.453,1.535,2.539,1.535,9.983
				c0,3.262-0.229,6.699-0.482,10.08c-0.404,0.027-0.826,0.082-1.27,0.166c-2.59-3.398-5.969-3.855-7.596-3.855
				c-0.611,0-1.24,0.058-1.869,0.172c-5.197,0.938-9.307,4.257-12.393,8.634c-0.004-1.879-0.004-3.762-0.004-5.636v-8.042
				c0.117,0,0.23,0.009,0.352,0.009c1.869,0,3.873-0.189,5.953-0.566C133.426,170.059,138.211,166.267,139.764,161.493z
				 M92.9,233.458c1.152,0,2.291-0.098,3.291-0.273c2.191-0.398,3.807-1.234,4.926-2.562c0.631-0.746,1.029-1.66,1.145-2.637
				c0.055-0.461,0.113-0.926,0.176-1.395c0.562,1.629,1.193,3.219,1.902,4.754c-2.295,0.934-4.479,1.57-6.738,1.977
				c-1.893,0.348-3.783,0.512-5.781,0.512c-1.443,0-2.955-0.09-4.51-0.277c0.098-0.324,0.162-0.664,0.191-1.004
				C88.797,233.107,90.547,233.458,92.9,233.458z M195.787,169.036c-1.162-0.38-2.205-0.467-2.914-0.467
				c-0.604,0-1.223,0.056-1.848,0.168c-3.145,0.57-5.887,2.015-8.252,4.031c0.607-0.774,0.98-1.723,1.055-2.732
				c0.111-1.573-0.518-3.104-1.701-4.138c-0.588-0.774-1.445-3.616-1.93-8.044c1.148-0.52,2.406-1.167,3.672-1.94
				c0.773,8.094,6.07,9.038,8.449,9.038c0.891,0,1.84-0.128,2.816-0.38c1.209-0.311,2.363-0.871,3.438-1.656
				c0.418,0.458,0.855,0.836,1.301,1.152C198.221,165.429,196.805,167.104,195.787,169.036z M164.75,115.877
				c3.268-1.606,6.531-2.99,10.24-3.664c0.207-0.036,0.406-0.051,0.609-0.083c-2.58,1.362-5.125,2.988-7.49,4.825
				c-1.227,0.951-2.355,1.929-3.41,2.92c0.059-0.911,0.09-1.805,0.09-2.667C164.789,116.767,164.777,116.322,164.75,115.877z
				 M83.654,159.147c-0.041,0.039-0.076,0.083-0.113,0.123c0.002-0.108,0.006-0.215,0.008-0.324
				C83.584,159.014,83.615,159.085,83.654,159.147z M155.91,222.638c0.262-0.09,0.525-0.18,0.805-0.285
				c1.674-0.551,3.586-1.434,5.395-2.305c0.482,0.797,1.043,1.5,1.666,2.117c-1.791,0.449-3.506,0.832-5.168,1.125
				c-0.57,0.102-1.105,0.316-1.6,0.602C156.676,223.455,156.309,223.041,155.91,222.638z M294.533,206.138
				c-1.305-0.586-2.73-1.094-4.242-1.547c2.777-1.262,5.344-3.352,6.941-4.805c0.004,0.211,0.004,0.41,0.004,0.625
				c0,0.984-0.02,3.539-0.055,7.109C296.367,207.037,295.498,206.572,294.533,206.138z"/>
		</g>
		<g id="XMLID_210_">
			<g id="XMLID_249_">
				<g id="XMLID_251_">
					<path id="XMLID_94_" fill-rule="evenodd" clip-rule="evenodd" d="M62.885,226.431c2.006,1,3.453,3.004,3.453,8.68
						s-0.559,63.766-0.67,67.438c-0.109,3.676,3.229,6.461,2.111-2.781c-1.109-9.234,0-65.773,1.117-69.445
						c1.113-3.672,5.119-2,6.789-0.547C76.129,225.314,68.783,221.865,62.885,226.431z"/>
					<path id="XMLID_93_" fill-rule="evenodd" clip-rule="evenodd" d="M68.006,312.74c0,1.191-0.457,2.164-1.023,2.164
						s-1.025-0.973-1.025-2.164c0-1.203,0.459-2.176,1.025-2.176S68.006,311.537,68.006,312.74z"/>
				</g>
				<g id="XMLID_250_">
					<path id="XMLID_92_" fill-rule="evenodd" clip-rule="evenodd" d="M74.662,295.279c0,0.934-0.373,1.691-0.832,1.691
						s-0.826-0.758-0.826-1.691s0.367-1.68,0.826-1.68S74.662,294.345,74.662,295.279z"/>
					<path id="XMLID_91_" fill-rule="evenodd" clip-rule="evenodd" d="M71.113,228.15c1.891,0.164,2.197,2.32,2.197,6.734
						c0,4.418-0.453,49.617-0.543,52.477c-0.09,2.855,2.613,5.016,1.711-2.168c-0.9-7.184,0-51.176,0.902-54.035
						c0.9-2.852,4.143-1.559,5.494-0.434C81.236,227.255,75.889,224.603,71.113,228.15z"/>
				</g>
			</g>
			<g id="XMLID_246_">
				<g id="XMLID_248_">
					<path id="XMLID_90_" fill-rule="evenodd" clip-rule="evenodd" d="M276.564,182.97c2.988,1.301,5.145,3.898,5.145,11.254
						c0,7.344-0.828,82.602-0.994,87.359c-0.168,4.758,4.814,8.371,3.15-3.605c-1.656-11.965,0-85.199,1.664-89.957
						c1.658-4.762,7.633-2.598,10.121-0.723C296.314,181.527,285.359,177.057,276.564,182.97z"/>
					<path id="XMLID_89_" fill-rule="evenodd" clip-rule="evenodd" d="M284.199,294.775c0,1.551-0.682,2.816-1.527,2.816
						c-0.844,0-1.531-1.266-1.531-2.816s0.688-2.809,1.531-2.809C283.518,291.966,284.199,293.224,284.199,294.775z"/>
				</g>
				<g id="XMLID_247_">
					<path id="XMLID_88_" fill-rule="evenodd" clip-rule="evenodd" d="M294.123,272.166c0,1.203-0.553,2.188-1.236,2.188
						c-0.682,0-1.238-0.984-1.238-2.188c0-1.211,0.557-2.188,1.238-2.188C293.57,269.978,294.123,270.955,294.123,272.166z"/>
					<path id="XMLID_87_" fill-rule="evenodd" clip-rule="evenodd" d="M298.061,183.876c-0.004-0.189-0.031-0.375-0.025-0.57
						c-2.691-0.545-6.012-0.166-9.201,1.895c2.814,0.211,3.275,3.004,3.275,8.727c0,5.719-0.672,64.27-0.809,67.977
						c-0.135,3.707,3.896,6.504,2.553-2.809s0-66.293,1.344-69.996c0.512-1.41,1.553-2.004,2.738-2.152
						C297.873,185.919,297.893,184.888,298.061,183.876z"/>
				</g>
			</g>
			<g id="XMLID_243_">
				<g id="XMLID_245_">
					<path id="XMLID_86_" fill-rule="evenodd" clip-rule="evenodd" d="M133.941,189.716c2.51,1.113,4.318,3.34,4.318,9.648
						c0,6.32-0.697,70.922-0.836,75c-0.139,4.09,4.039,7.184,2.646-3.094c-1.393-10.266,0-73.137,1.393-77.223
						c1.395-4.082,6.41-2.23,8.498-0.613C150.52,188.482,141.324,184.642,133.941,189.716z"/>
					<path id="XMLID_85_" fill-rule="evenodd" clip-rule="evenodd" d="M140.346,285.689c0,1.332-0.57,2.422-1.277,2.422
						c-0.711,0-1.285-1.09-1.285-2.422s0.574-2.406,1.285-2.406C139.775,283.283,140.346,284.357,140.346,285.689z"/>
				</g>
				<g id="XMLID_244_">
					<path id="XMLID_84_" fill-rule="evenodd" clip-rule="evenodd" d="M148.68,266.283c0,1.035-0.465,1.883-1.037,1.883
						c-0.574,0-1.039-0.848-1.039-1.883s0.465-1.879,1.039-1.879C148.215,264.404,148.68,265.248,148.68,266.283z"/>
					<path id="XMLID_83_" fill-rule="evenodd" clip-rule="evenodd" d="M144.238,191.63c2.365,0.18,2.75,2.578,2.75,7.488
						c0,4.906-0.562,55.18-0.678,58.355c-0.113,3.176,3.271,5.59,2.143-2.41c-1.129-7.988,0-56.906,1.129-60.094
						c1.127-3.168,5.186-1.73,6.877-0.48C156.91,190.638,150.213,187.689,144.238,191.63z"/>
				</g>
			</g>
			<path id="XMLID_82_" d="M302.449,178.073c-1.953-2.026-2.787-4.415-2.787-7.985c0-2.223,0.529-5.016,1.051-7.716
				c0.518-2.731,1.008-5.314,1.008-7.572c0-6.258-4.021-8.478-7.467-8.478c-0.566,0-1.162,0.056-1.771,0.165
				c-3.535,0.645-7.762,2.918-9.508,3.92c-1.785-0.983-3.703-1.251-5.229-1.251c-0.896,0-1.857,0.092-2.857,0.272
				c-1.102,0.198-2.262,0.598-3.438,1.168c0.086-1.908,0.168-3.664,0.246-5.275c0.203-4.039,0.359-7.228,0.359-9.923
				c0-4.959-0.988-8.972-2.945-11.925c-1.721-2.604-5.051-5.704-11.133-5.704c-1.145,0-2.359,0.116-3.613,0.341
				c-2.484,0.448-5.012,1.48-7.246,2.987c0.443-1.17,0.703-2.347,0.703-3.506c0-3.812-2.793-7.662-9.039-7.662
				c-0.734,0-1.512,0.049-2.34,0.145c0.082-1.747,0.139-3.339,0.139-4.787c0-3.9-2.695-6.732-6.414-6.732
				c-0.689,0-1.393,0.097-2.145,0.292c-3.238,0.824-6.924,3.665-7.975,4.516c-1.82,1.475-2.375,4.01-1.344,6.11
				c0.117,0.236,0.695,1.694,0.695,7.279c0,0.101,0,0.189,0,0.288c-0.258-0.021-0.49-0.031-0.676-0.031
				c-0.922,0-1.871,0.128-2.9,0.391c-0.537,0.14-1.088,0.341-1.643,0.596c-1.812-2.443-4.594-3.587-7.361-3.587
				c-0.936,0-1.895,0.126-2.857,0.373c-4.018,1.035-8.195,4.305-9.592,8.87c-0.979-1.236-2.268-2.187-3.791-2.773
				c2.996-5.196,4.262-8.63,4.262-11.552c0-3.768-2.406-8.169-9.182-8.169c-0.432,0-0.898,0.025-1.369,0.061
				c0.301-1.187,0.461-2.36,0.461-3.437c0-6.139-4.215-10.426-10.246-10.426c-0.84,0-1.723,0.083-2.625,0.246
				c-4.387,0.792-9.844,3.962-16.162,7.632c-0.762,0.442-1.533,0.892-2.305,1.336c-2.762-2.154-6.252-3.336-10.057-3.336
				c-1.068,0-2.143,0.095-3.195,0.287c-7.131,1.287-12.111,6.509-12.111,12.694c0,1.636,0.445,3.315,1.367,4.808
				c-1.291,0.623-2.402,1.472-3.33,2.503c-0.646-0.202-1.344-0.316-2.086-0.316c-0.277,0-0.559,0.015-0.85,0.045
				c-1.525-1.539-3.502-2.39-5.727-2.39c-0.518,0-1.049,0.048-1.576,0.143c-0.076,0.014-0.145,0.042-0.221,0.056
				c0-0.072,0.01-0.147,0.01-0.221c0-6.88-4.908-11.505-12.209-11.505c-1.18,0-2.438,0.121-3.736,0.355
				c-11.553,2.086-30.717,16.78-30.717,28.736c0,6.768,4.514,9.167,8.381,9.167c0.094,0,0.189,0,0.285-0.002
				c-0.055,0.854-0.117,1.712-0.18,2.56c-0.156,2.159-0.303,4.199-0.303,6.031c0,2.966,0.551,5.037,1.363,6.476
				c-0.572,0.56-1.016,1.26-1.271,2.063c-0.473,1.487-0.723,3.008-0.723,4.396c0,0.489,0.037,0.961,0.088,1.427
				c-0.088-0.002-0.172-0.008-0.262-0.008c-1.217,0-2.461,0.112-3.705,0.339c-4.746,0.849-8.762,3.25-11.01,6.582
				c-1.174,1.743-1.137,4.035,0.094,5.736c0.436,0.604,1.23,1.962,2.627,5.024c-4.203,17.328-6.619,26.183-7.938,31.003
				c-1.773,6.504-1.959,7.184-1.959,11.906c0,2.512,0.996,10.715,13.811,10.715c1.854,0,3.867-0.168,6.002-0.496
				c-0.42,1.676-0.633,3.277-0.633,4.789c0,7.98,5.121,13.352,12.744,13.352c1.059,0,2.172-0.102,3.314-0.309
				c5.98-1.086,12.979-5.66,20.387-10.508c0.096-0.062,0.191-0.125,0.291-0.188c4.93,3.301,10.857,4.973,17.676,4.973
				c2.848,0,5.91-0.293,9.104-0.867c5.232-0.949,9.217-3.07,12.045-5.73c0.814,0.535,1.77,0.824,2.75,0.824
				c0.473,0,0.951-0.07,1.422-0.207c2.34-0.691,4.906-1.625,7.85-2.859c7.967-3.414,22.396-7.289,36.801-9.898
				c13.209-2.383,25.764-3.645,36.307-3.645c15.07,0,33.195,2.48,33.914,14.312c0.1,1.57,0.922,3,2.23,3.875
				c0.832,0.551,1.799,0.832,2.773,0.832c0.559,0,1.121-0.09,1.66-0.281c0.248-0.09,6.234-2.199,12.293-5.73
				c9.234-5.379,13.918-11.297,13.918-17.602c0-5.277-2.033-12.48-11.717-16.832c-1.305-0.586-2.73-1.094-4.244-1.547
				c4.033-1.832,7.621-5.402,8.438-6.242c0.875-0.91,1.348-2.094,1.395-3.305c3.738-1.219,6.145-2.547,6.287-2.621
				c1.357-0.762,2.291-2.104,2.518-3.645C304.027,180.753,303.531,179.194,302.449,178.073z M151.879,217.404
				c-0.332-0.434-0.699-0.852-1.098-1.254c0.262-0.09,0.525-0.18,0.805-0.285c1.674-0.547,3.586-1.434,5.396-2.301
				c0.482,0.793,1.039,1.5,1.666,2.113c-1.793,0.449-3.51,0.836-5.17,1.125C152.906,216.908,152.373,217.123,151.879,217.404z
				 M213.26,151.178c0.582,0.529,1.195,0.916,1.809,1.215c-0.781,1.039-1.52,2.202-2.215,3.505
				c-1.217-0.913-2.584-1.547-4.012-1.935c0.682-0.779,1.104-1.418,1.283-1.713C211.078,151.977,212.111,151.625,213.26,151.178z
				 M234.408,151.143c-0.859-1.847-2.266-3.251-4.074-4.073c0.994-0.315,2.09-0.72,3.35-1.233c1.186,1.25,2.518,2.401,4.014,3.344
				C236.545,149.749,235.443,150.406,234.408,151.143z M173.576,170.78c-0.277-0.49-0.576-0.935-0.896-1.333
				c1.635-0.791,2.986-1.584,3.631-1.981c0.059-0.03,0.1-0.07,0.152-0.103C175.42,168.396,174.455,169.546,173.576,170.78z
				 M158.545,167.422c0.035-0.825,0.072-1.609,0.109-2.381c0.172,0.662,0.398,1.35,0.682,2.024
				C159.072,167.179,158.811,167.294,158.545,167.422z M190.658,162.549c-1.164-0.378-2.203-0.467-2.914-0.467
				c-0.605,0-1.223,0.058-1.848,0.169c-3.145,0.57-5.885,2.016-8.252,4.031c0.609-0.774,0.98-1.724,1.057-2.732
				c0.113-1.573-0.52-3.104-1.703-4.138c-0.588-0.775-1.445-3.615-1.928-8.044c1.145-0.521,2.408-1.167,3.67-1.939
				c0.773,8.092,6.068,9.037,8.449,9.037c0.891,0,1.84-0.128,2.816-0.381c1.211-0.312,2.361-0.871,3.438-1.654
				c0.418,0.457,0.852,0.835,1.301,1.151C193.092,158.942,191.674,160.617,190.658,162.549z M115.639,173.319v-8.041
				c0.117,0,0.23,0.009,0.352,0.009c1.869,0,3.873-0.19,5.953-0.567c6.352-1.147,11.141-4.939,12.691-9.713
				c0.018-0.01,0.039-0.019,0.057-0.028c1.318-0.789,2.252-1.073,2.799-1.173c0.094-0.016,0.17-0.023,0.227-0.029
				c0.35,0.452,1.537,2.539,1.537,9.983c0,3.262-0.229,6.701-0.482,10.081c-0.406,0.029-0.826,0.082-1.273,0.164
				c-2.586-3.397-5.969-3.854-7.594-3.854c-0.611,0-1.24,0.057-1.867,0.173c-5.199,0.936-9.309,4.26-12.395,8.633
				C115.639,177.077,115.639,175.195,115.639,173.319z M89.396,169.305c0.76-0.137,1.535-0.374,2.324-0.654
				c0.006,0.147,0.012,0.296,0.02,0.443c-0.807,4.558-1.686,8.269-2.549,11.268c-0.488-2.91-1.012-6.489-1.555-10.852
				C88.213,169.473,88.797,169.413,89.396,169.305z M87.773,226.97c1.15,0,2.289-0.094,3.287-0.277
				c2.193-0.391,3.809-1.227,4.928-2.555c0.631-0.75,1.029-1.664,1.145-2.637c0.057-0.461,0.113-0.926,0.176-1.395
				c0.562,1.625,1.193,3.215,1.902,4.75c-2.295,0.934-4.479,1.57-6.74,1.98c-1.891,0.344-3.781,0.508-5.779,0.508
				c-1.445,0-2.955-0.09-4.51-0.273c0.1-0.328,0.164-0.672,0.191-1.004C83.67,226.619,85.418,226.97,87.773,226.97z
				 M188.705,205.599c0.387,0.574,0.803,1.086,1.234,1.543c-1.637,0.398-3.145,0.777-4.549,1.141
				C186.557,207.568,187.66,206.685,188.705,205.599z M162.98,110.469c-1.229,0.951-2.357,1.927-3.408,2.92
				c0.057-0.912,0.088-1.806,0.088-2.667c0-0.442-0.012-0.886-0.039-1.331c3.266-1.605,6.529-2.991,10.24-3.664
				c0.207-0.037,0.406-0.052,0.611-0.083C167.889,107.007,165.346,108.633,162.98,110.469z M236.25,198.123
				c0.287-0.512,0.488-1.07,0.584-1.66c0.031,0,0.062,0.004,0.096,0.004c1.285,0,2.662-0.129,4.094-0.387
				c3.518-0.637,6.85-2.141,9.686-4.191c0.514,1.938,1.361,3.328,2.371,4.344C247.9,196.623,242.279,197.255,236.25,198.123z"/>
			<g id="XMLID_242_">
				<g id="XMLID_81_">
					<path fill="#FFFFFF" d="M223.766,205.232c-28.828,5.207-42.65,9.336-48.947,11.203c-8.318,2.238-14.5,4.254-20.469,5.305
						c0.732,3.523-0.061,7.648-2.396,10.93c2.07-0.609,4.459-1.473,7.334-2.68c7.654-3.273,21.914-7.316,37.848-10.199
						c33.762-6.094,74.758-7.004,76.117,15.293c0,0,22.859-8.016,22.859-18.602C296.111,196.771,259.205,198.826,223.766,205.232z"
						/>
				</g>
				<g id="XMLID_80_">
					<path fill="#FFFFFF" d="M155.748,130.379c0,2.572,0.965,5.134,3.15,7.48c0.965-1.23,1.934-2.39,2.902-3.426
						c0.404,2.369,0.582,6.296,0.682,9.051c-1.271,0.575-2.598,1.114-3.867,1.632c0,0-2.258,2.737-2.258,5.069
						c0,1.02,0.457,1.762,1.729,1.657c1.422-0.422,2.951-0.851,4.424-1.329c0.051,6.887,0.357,16.326,3.047,16.112
						c2.904-0.24,8.143-3.438,8.143-3.438c-2.697-2.237-3.662-10.124-3.914-15.078c6.967-2.616,12.51-6.129,12.51-11.829
						c0-2.277-1.297-3.095-4.449-3.852c-2.852,3.119-5.439,5.368-8.035,7.082c0,0,0.176-8.64,0.176-9.658
						c0-1.202-0.355-1.889-0.965-2.19c9.156-7.184,16.324-7.771,16.324-7.771c2.746-4.556,4.48-8.176,4.48-10.565
						c0-2.29-1.574-3.422-5.344-3.104C173.65,107.117,155.748,119.154,155.748,130.379z"/>
				</g>
				<g id="XMLID_79_">
					<path fill="#FFFFFF" d="M179.139,131.635c0.418-0.2,0.838-0.307,1.209-0.394c3.209-0.833,3.998,1.569,3.998,5.049
						c0,3.297-0.699,7.616-0.699,11.055c0,4.038,0.98,6.95,5.109,5.887c2.324-0.602,4.508-3.299,5.996-7.262
						c0.602,4.871,2.137,8.657,5.203,7.856c4.084-1.043,5.902-4.202,5.902-4.202c-4.049,0.064-5.207-4.698-5.207-9.81
						c0-5.251,1.254-10.828,1.906-11.779c-0.605-0.679-2.418-0.635-4.086-0.203c-1.535,0.389-2.883,1.11-2.977,1.835
						c-0.605,2.238-1.068,6.312-1.068,10.491c0,0.837,0,1.72,0.045,2.539c-0.605,1.322-1.252,1.997-1.812,2.141
						c-1.531,0.398-2-1.995-2-4.966c0-3.955,0.793-8.947,0.793-9.826c0-4.231-3.299-5.419-6.504-4.596
						C182.115,126.179,179.324,128.52,179.139,131.635z"/>
				</g>
				<g id="XMLID_78_">
					<path fill="#FFFFFF" d="M204.846,130.374c0,3.853-1.211,9.321-1.211,13.499c0,3.671,1.301,4.549,4.557,3.712
						c1.205-0.311,2.689-0.828,4.455-1.562c-1.898-2.579-2.277-5.786-2.277-9.043c0-2.459,0.328-5.09,0.559-7.615
						c0.512-0.543,1.07-0.925,1.578-1.053c2.324-0.597,2.883,1.387,2.883,4.37c0,2.554-0.418,5.774-0.418,8.652
						c0,4.42,0.98,7.883,5.715,6.659c2.461-0.634,5.668-4.191,5.668-4.191c-4.137,0.642-5.109-2.174-5.109-5.931
						c0-3.351,0.742-7.443,0.742-10.648c0-3.585-0.932-5.985-4.926-4.967c-1.441,0.378-3.902,2.031-5.947,4.742
						c0.045-0.707,0.092-1.098,0.092-2.021c0-4.88-2.973-6.123-5.988-5.343c-3.021,0.777-6.131,3.582-6.324,6.921
						c0.701-0.319,1.354-0.576,1.906-0.712C204.004,125.016,204.846,127.119,204.846,130.374z"/>
				</g>
				<g id="XMLID_77_">
					<path fill="#FFFFFF" d="M223.713,138.716c0,3.713,0.936,4.689,4.045,3.891c1.115-0.29,2.557-0.8,4.322-1.532
						c-0.977-0.816-1.258-3.909-1.305-7.618c3.719,4.901,8.227,15.077,17.561,12.688c2.369-0.612,3.998-2.333,3.998-5.165
						c0-0.974-0.184-2.088-0.602-3.321c-1.535,0.853-3.023,1.466-4.418,1.818c-7.664,1.979-10.867-6.068-13.982-9.688
						c5.717-4.585,9.479-9.365,9.479-12.195c0-2.186-2.184-3.243-7.297-2.311c-0.277,5.7-2.227,9.315-4.738,11.862
						c0-8.917,0.791-16.69,0.791-21.856c0-1.665-0.975-1.93-2.277-1.59c-2.461,0.625-6.086,3.561-6.086,3.561
						c0.932,1.895,1.209,5.402,1.209,9.494C224.412,131.149,223.713,131.791,223.713,138.716z"/>
				</g>
				<g id="XMLID_76_">
					<path fill="#FFFFFF" d="M78.76,132.445c-0.047-0.264-0.047-0.501-0.047-0.773c0-6.557,11.303-14.361,17.586-15.492
						c2.828-0.513,4.098,0.511,4.098,2.184c0,2.97-3.9,7.998-10.09,10.413c0.098-1.363,0.098-2.663,0.098-3.964
						c0-1.673-1.018-2-2.387-1.752c-2.582,0.468-6.383,3.151-6.383,3.151c0.93,1.831,1.17,4.483,1.17,7.314
						c0,4.316-0.633,9.171-0.633,12.658c0,3.024,0.488,4.974,2.24,4.66c2.775-0.506,8.969-3.38,8.969-3.38
						c-2.828-1.632-3.512-5.363-3.512-9.829c0-1.992,0.096-4.15,0.242-6.312c0.494,0.149,1.123,0.175,1.998,0.009
						c5.852-1.052,4.875,12.041,9.893,20.934c-3.119,1.678-6.43,3.201-10.379,3.918c-2.777,0.502-5.895,0.605-9.594,0.062
						c-0.299,0.936-0.486,1.946-0.486,2.874c0,3.252,1.992,6.151,6.961,5.252c4.049-0.732,9.795-5.165,15.545-9.174
						c3.264,3.817,8.428,6.143,17.002,4.59c5.893-1.065,9.109-4.802,9.109-8.153c0-3.853-4.238-7.218-13.637-5.521
						c-2.684,0.481-5.07,1.329-7.264,2.328c-3.898-7.05-6.234-17.645-12.469-19.906c9.158-4.904,13.834-12.349,13.834-17.694
						c0-4.457-3.312-7.436-10.039-6.218c-10.523,1.902-26.598,15.537-26.598,23.805C73.988,131.079,74.867,133.146,78.76,132.445z
						 M116.717,148.438c3.945-0.708,5.551,0.952,5.551,2.767c0,1.578-1.217,3.331-3.164,3.688c-3.705,0.666-6.285-1.14-8.381-4.019
						C112.865,149.652,114.912,148.77,116.717,148.438z"/>
				</g>
				<g id="XMLID_75_">
					<path fill="#FFFFFF" d="M106.162,133.648c0,4.551,1.705,7.96,5.357,7.305c2.145-0.388,4.727-1.512,7.656-7.703
						c0.287,3.62,1.77,8.151,7.473,7.119c0.639-0.115,2.561-0.648,3.176-0.799c-3.623-0.688-4.709-4.987-4.639-6.784
						c0-4.512,0.076-9.183,0.076-13.417c0-1.113-0.875-1.283-2.045-1.064c-0.73,0.13-1.559,0.42-2.342,0.742
						c-0.482-1.49-1.605-3.563-4.139-3.106C110.109,117.137,106.162,126.68,106.162,133.648z M117.66,121.49
						c0.293,0.779,0.537,1.615,0.682,2.477c0.1,0.677,0.146,1.322,0.146,1.927c0,5.335-2.971,8.942-4.234,9.171
						c-0.49,0.087-0.734-0.654-0.734-1.814C113.52,130.23,115.029,124.245,117.66,121.49z"/>
				</g>
				<g id="XMLID_74_">
					<path fill="#FFFFFF" d="M132.963,137.872c1.855-0.335,3.854-2.229,5.461-6.097c0.928,3.504,2.775,5.351,4.82,4.982
						c6.236-1.122,11.404-15.026,11.404-26.036c0-1.533-0.199-2.937-0.488-4.188c4.627-2.37,9.162-4.718,14.809-5.74
						c3.072-0.556,6.432-0.701,10.279-0.137c0.295-0.941,0.488-1.952,0.488-2.876c0-3.252-1.996-6.146-6.965-5.247
						c-4.727,0.853-12.865,6.229-20.27,10.31c-2.678-3.931-7.355-5.133-11.445-4.391c-4.293,0.775-7.992,3.673-7.992,7.762
						c0,3.156,3.316,5.578,9.746,4.411c2.387-0.431,4.627-1.155,6.77-2.005c0.682,1.59,1.117,3.645,1.117,6.201
						c0,6.652-2.625,13.163-4.48,13.498c-1.02,0.183-1.803-1.485-1.803-6.034c0-2.047,0.441-4.635,1.512-7.759
						c-0.588-0.311-1.512-0.327-2.533-0.144c-1.801,0.326-3.846,1.39-4.336,3.15c-0.875,3.178-1.27,6.034-1.27,8.495
						c0,0.884,0.053,1.711,0.1,2.498c-0.629,1.177-1.365,1.777-1.945,1.881c-1.172,0.211-2.047-1.396-2.047-4.461
						c0-2.643,0.682-6.438,2.434-11.168c0,0-1.215-0.157-2.68,0.109c-1.508,0.272-3.312,0.973-4.432,2.749
						c-1.658,2.627-2.486,6.259-2.486,9.751C126.73,134.166,129.652,138.477,132.963,137.872z M141.738,107.433
						c-2.291,0.414-3.41-0.447-3.41-1.242c0-1.156,1.318-2.137,3.07-2.457c1.799-0.322,4.088,0.095,5.988,1.703
						C145.291,106.419,143.344,107.143,141.738,107.433z"/>
				</g>
				<g id="XMLID_73_">
					<path fill="#FFFFFF" d="M129.664,216.685c-5.4,0.977-9.875,2.996-14.137,5.324c-4.902-11.328-4.902-30.301-4.902-48.69v-9.025
						c-0.354-1.855-5.896-3.272-9.947-2.538c-2.057,0.372-3.693,1.303-4.189,2.961c0.143,1.47,0.213,3.081,0.283,4.704
						c-3.623,20.909-8.881,25.905-8.881,25.905s-2.555-2.953-5.396-26.583c-0.355-2.715-4.619-3.717-8.949-2.934
						c-3.057,0.546-6.111,2.025-7.746,4.452c0.996,1.38,2.273,3.918,3.838,7.475c-10.016,41.449-10.158,36.078-10.158,43.394
						c0,6.957,10.229,5.965,15.203,5.066c1.633-0.289,2.697-0.562,2.697-0.562c-2.627-4.992-3.479-11.512-3.479-18.047
						c0-5.398,0.568-10.828,1.135-15.48c2.771,8.102,5.824,17.918,8.738,28.82c0.072,0.91,3.836,1.297,6.391,0.836
						c0.926-0.168,1.637-0.434,1.992-0.859c1.133-9.504,3.553-19.32,5.609-26.793c0.855,12.203,2.842,24.488,8.383,33.008
						c-3.836,2.039-7.955,3.777-12.785,4.652c-4.051,0.73-8.596,0.844-13.996-0.031c-0.424,1.43-0.711,2.973-0.711,4.398
						c0,4.973,2.914,9.41,10.158,8.105c5.756-1.043,13.713-6.672,21.811-11.898c5.682,5.082,13.779,7.457,25.643,5.309
						c8.596-1.551,13.285-7.23,13.285-12.344C149.553,219.408,143.373,214.208,129.664,216.685z M133.426,232.279
						c-6.748,1.219-11.436-0.781-14.773-4.934c4.047-2.363,7.885-4.125,11.295-4.742c5.754-1.043,8.098,1.449,8.098,4.148
						C138.045,229.169,136.268,231.755,133.426,232.279z"/>
				</g>
				<g id="XMLID_72_">
					<path fill="#FFFFFF" d="M190.332,193.689c0.432,5.523,1.85,13.27,10.164,11.766c1.549-0.273,3.025-0.664,4.471-1.082
						c-2.193-0.629-3.797-2.023-4.84-3.836c-0.914-1.301-1.764-5.312-1.764-7.945c0-6.891,0.85-13.58,0.85-20.05
						c0-1.703-1.277-1.969-2.98-1.657c-1.064,0.189-2.273,0.62-3.41,1.113c-0.707-2.295-2.344-5.475-6.039-4.812
						c-9.66,1.748-15.414,16.286-15.414,26.942c0,6.961,2.484,12.195,7.814,11.23C182.307,204.791,186.074,203.115,190.332,193.689z
						 M188.135,175.684c0.426,1.202,0.781,2.488,0.992,3.796c0.145,1.038,0.215,2.018,0.215,2.942c0,8.17-4.336,13.639-6.182,13.975
						c-0.709,0.133-1.064-1.008-1.064-2.785C182.096,188.994,184.295,179.855,188.135,175.684z"/>
				</g>
				<g id="XMLID_71_">
					<path fill="#FFFFFF" d="M168.422,213.47c3.766-0.68,8.666-5.762,8.666-5.762c-6.324,0.5-7.816-3.914-7.816-9.668
						c0-5.113,1.137-13.789,1.137-18.695c0-5.467-1.418-9.262-7.529-8.158c-2.344,0.421-6.465,2.948-9.73,7.371
						c0.281-12.695,0.992-20.854,0.992-26.317c0-8.604-3.338-13.893-11.791-12.365c-5.258,0.954-10.23,5.12-10.23,10.373v0.426
						c1.705-1.02,3.197-1.57,4.479-1.803c6.178-1.114,7.668,6.147,7.668,14.888c0,5.89-0.711,12.339-0.992,17.361
						c-0.498,8.4-0.996,16.803-0.996,22.986c0,0.652,0.033,1.246,0.09,1.793c-1.576-0.699-1.854-2.914-1.854-5.262
						c0-6.895,0.85-13.574,0.85-20.039c0-1.704-1.279-1.97-2.982-1.661c-1.064,0.193-2.273,0.622-3.41,1.114
						c-0.709-2.292-2.344-5.47-6.037-4.8c-9.66,1.744-15.416,16.272-15.416,26.928c0,6.957,2.486,12.195,7.814,11.234
						c3.123-0.566,6.889-2.238,11.152-11.68c0.426,5.539,1.918,12.676,10.229,11.172c3.027-0.543,4.529-0.773,7.223-1.777
						c1.756-0.566,4.113-1.715,6.125-2.695c-0.119-0.113-0.213-0.285-0.326-0.434c0.006,0,0.008,0,0.014-0.004
						c-0.008,0.004-0.018,0-0.025,0c-2.055-2.586-2.648-9.453-2.648-18.273v-7.887c0.926-1.084,1.92-1.767,2.844-1.933
						c3.551-0.636,4.404,2.472,4.404,7.019c0,3.906-0.641,11.285-0.641,15.691C159.682,209.369,161.174,214.783,168.422,213.47z
						 M125.309,204.458c-0.709,0.129-1.066-1.016-1.066-2.793c0-4.621,2.203-13.746,6.041-17.926
						c0.426,1.199,0.779,2.48,0.992,3.797c0.143,1.035,0.213,2.02,0.213,2.945C131.488,198.65,127.154,204.126,125.309,204.458z"/>
				</g>
				<g id="XMLID_70_">
					<path fill="#FFFFFF" d="M229.865,159.156c0,0,0.496-1.581,0.496-3.358c0-2.487-1-5.218-5.543-4.398
						c-6.18,1.114-10.014,10.476-12.074,20.942c0.07-1.578,0.143-3.231,0.143-4.793c0-7.452-4.549-9.688-9.164-8.854
						c-4.619,0.832-9.373,4.755-9.662,9.848c1.137-0.422,2.133-0.744,3.055-0.906c5.043-0.915,6.395,2.535,6.395,7.65
						c0,5.612-1.631,13.364-1.631,19.473c0,5.609,1.986,7.102,6.955,6.199c1.85-0.328,4.121-0.961,6.82-1.867
						c-1.844-2.582-3.195-5.387-3.195-9.516C212.459,180.562,214.52,162.852,229.865,159.156z"/>
				</g>
				<g id="XMLID_69_">
					<path fill="#FFFFFF" d="M221.449,199.177c6.109-1.102,10.441-3.523,10.441-3.523c-3.264-3.391-4.191-7.34-4.191-11.461
						c0-5.039,2.061-11.45,2.061-15.29c0-2.411-0.781-3.831-3.336-3.371c-3.41,0.617-8.453,3.657-8.453,3.657
						c0.992,2.518,1.348,5.58,1.348,8.704c0,5.829-1.137,12.143-1.137,16.334C218.182,197.568,218.895,199.634,221.449,199.177z"/>
				</g>
				<g id="XMLID_68_">
					<path fill="#FFFFFF" d="M285.127,180.119c0,3.343,0.715,5.417,3.271,4.955c6.107-1.107,10.443-3.521,10.443-3.521
						c-3.27-3.393-4.191-7.338-4.191-11.464c0-5.044,2.059-11.456,2.059-15.288c0-2.419-0.785-3.839-3.338-3.379
						c-3.412,0.621-8.455,3.661-8.455,3.661c0.992,2.523,1.352,5.585,1.352,8.706C286.268,169.612,285.127,175.934,285.127,180.119z
						"/>
				</g>
				<g id="XMLID_67_">
					<path fill="#FFFFFF" d="M257.168,146.927c0,5.89-0.709,12.343-0.992,17.367c-0.193,3.317-0.383,6.59-0.549,9.758
						c-0.691-0.053-1.371-0.144-2.062-0.178c-3.059-6.122-14.352-5.289-14.352-10.973c0-1.848,2.271-3.685,4.049-4.005
						c1.205-0.216,2.201,0.239,2.201,1.735c0,2.345-1.918,5.891-1.918,5.891c7.32-1.321,11.365-6.321,11.365-10.087
						c0-4.187-4.475-5.507-9.447-4.61c-6.324,1.141-13.496,5.851-13.496,12.385c0,4.761,4.262,7.892,8.242,10.869
						c-6.75,2.141-10.371,7.061-10.371,10.895c0,3.695,3.334,6.426,10.297,5.168c8.025-1.449,14.137-8.445,14.207-13.785
						c0.371,0.038,0.744,0.133,1.113,0.181c-0.158,3.557-0.273,6.897-0.273,9.737c0,5.613,1.986,7.102,6.965,6.207
						c1.844-0.34,4.117-0.961,6.816-1.879c-2.346-2.207-2.984-9.406-2.984-18.714v-7.882c0.928-1.095,1.918-1.765,2.844-1.931
						c3.549-0.646,4.402,2.468,4.402,7.016c0,3.907-0.637,8.777-0.637,13.179c0,6.758,1.49,12.168,8.738,10.859
						c3.766-0.676,8.664-5.754,8.664-5.754c-6.322,0.496-7.816-3.922-7.816-9.667c0-5.118,1.141-11.289,1.141-16.192
						c0-5.468-1.422-9.263-7.531-8.156c-2.342,0.423-6.465,2.937-9.73,7.369c0.281-12.696,0.99-20.855,0.99-26.332
						c0-8.589-3.336-13.883-11.787-12.354c-5.258,0.948-10.23,5.12-10.23,10.371v0.432c1.703-1.019,3.195-1.569,4.475-1.807
						C255.678,130.925,257.168,138.187,257.168,146.927z M242.408,186.478c-2.199,0.398-4.545-1.666-4.545-3.945
						c0-1.84,1.416-3.732,5.682-4.787c1.564,1.562,2.699,3.134,2.699,4.982S244.967,186.009,242.408,186.478z"/>
				</g>
			</g>
			<g id="XMLID_241_">
				<g id="XMLID_66_">
					<path fill="#9D9D9C" d="M265.096,202.248c-10.871,0-24.686,1.5-41.062,4.465c-28.514,5.148-42.104,9.18-48.633,11.117
						l-0.191,0.059c-2.473,0.664-4.756,1.309-6.898,1.914c-4.496,1.273-8.447,2.387-12.26,3.148c0.039,0.418,0.039,0.84,0.043,1.258
						c3.473-0.75,7.082-1.758,11.141-2.906c2.146-0.602,4.428-1.25,6.9-1.914l0.191-0.055c6.531-1.938,20.119-5.973,48.635-11.121
						c16.375-2.957,30.191-4.461,41.064-4.461c19.582,0,29.51,4.789,29.51,14.234c0,1.297-0.439,2.578-1.193,3.824
						c1.398-1.703,2.268-3.5,2.268-5.328C294.609,207.037,284.678,202.248,265.096,202.248z"/>
				</g>
				<g id="XMLID_65_">
					<path fill="#9D9D9C" d="M162.947,145.94l-0.037-1.006c-1.111,0.498-2.246,0.971-3.354,1.423
						c-0.256,0.346-0.598,0.86-0.908,1.431c1.117-0.456,2.264-0.926,3.379-1.431L162.947,145.94z"/>
				</g>
				<g id="XMLID_64_">
					<path fill="#9D9D9C" d="M159.777,123.11c5.611-7.203,16.549-13.29,23.756-13.886c0.375-0.033,0.727-0.048,1.053-0.048
						c2.666,0,2.666,0.955,2.666,1.652c0,1.981-1.711,5.356-3.043,7.712c0.074-0.012,0.152-0.027,0.221-0.038
						c1.287-2.159,3.895-6.729,3.895-9.177c0-0.698,0-1.653-2.664-1.653c-0.326,0-0.678,0.017-1.055,0.049
						C176.906,108.358,164.945,115.271,159.777,123.11z"/>
				</g>
				<g id="XMLID_63_">
					<path fill="#9D9D9C" d="M167.154,148.593l0.055,1.099c0.199,3.869,0.816,10.084,2.727,13.837
						c0.523-0.258,1.029-0.521,1.482-0.768c-2.232-3.626-2.924-10.438-3.133-14.574l-0.002-0.018
						c-0.035,0.012-0.066,0.024-0.102,0.038L167.154,148.593z"/>
				</g>
				<g id="XMLID_62_">
					<path fill="#9D9D9C" d="M167.277,130.511c-0.004,0.001,0.131,0.196,0.131,0.846c0,0.992-0.174,9.542-0.174,9.628l-0.059,2.863
						l2.389-1.579c2.561-1.691,5.084-3.873,7.699-6.655c2.455,0.695,2.455,1.299,2.455,2.172c0,1.146-0.289,2.228-0.861,3.256
						c1.297-1.465,1.938-3.038,1.938-4.76c0-0.872,0-1.476-2.457-2.172c-2.617,2.783-5.141,4.966-7.699,6.659l-2.391,1.577
						l0.059-2.863c0.004-0.086,0.176-8.637,0.176-9.629c0-0.65-0.137-0.845-0.133-0.845l-1.615-0.803l-1.588,1.245L167.277,130.511z
						"/>
				</g>
				<g id="XMLID_61_">
					<path fill="#9D9D9C" d="M194.33,145.559l0.055,0.008c0.031-0.051,0.059-0.104,0.086-0.155
						C194.424,145.458,194.377,145.515,194.33,145.559z"/>
				</g>
				<g id="XMLID_60_">
					<path fill="#9D9D9C" d="M185.322,126.906c-1.494,0.386-3.035,1.345-3.926,2.666c0.039,0,0.08,0,0.117,0
						c0.094,0,0.17,0.022,0.262,0.026c0.752-0.556,1.617-0.968,2.471-1.189c0.512-0.132,1.014-0.199,1.486-0.199
						c1.436,0,3.143,0.581,3.143,3.341c0,0.197-0.096,1.032-0.182,1.768c-0.242,2.104-0.609,5.282-0.609,8.057
						c0,1.676,0.139,2.968,0.42,3.952c0.637,2.227,2.004,2.561,2.764,2.561l0,0c0.219,0,0.439-0.027,0.66-0.081
						c-0.359,0.841-0.748,1.594-1.158,2.269c0.811-0.941,1.576-2.223,2.232-3.773c-0.223,0.056-0.445,0.083-0.66,0.083l0,0
						c-0.758,0-2.129-0.333-2.766-2.561c-0.281-0.984-0.418-2.276-0.418-3.952c0-2.775,0.365-5.952,0.607-8.056
						c0.088-0.736,0.186-1.57,0.186-1.771c0-2.759-1.709-3.338-3.141-3.338C186.33,126.708,185.83,126.776,185.322,126.906z"/>
				</g>
				<g id="XMLID_59_">
					<path fill="#9D9D9C" d="M199.498,130.524c-0.75,2.554-1.426,6.961-1.426,10.794c0,3.076,0.402,5.567,1.193,7.402
						c0.604,1.4,1.385,2.313,2.211,2.91c0.662-0.351,1.217-0.749,1.658-1.133c-1.041-0.557-2.051-1.556-2.793-3.279
						c-0.793-1.836-1.191-4.326-1.191-7.404c0-3.834,0.672-8.238,1.422-10.793c-0.52,0.018-1.129,0.11-1.736,0.268
						c-1.051,0.267-1.693,0.637-1.904,0.815c-0.078,0.298-0.156,0.658-0.232,1.045c0.291-0.122,0.635-0.249,1.066-0.358
						C198.373,130.636,198.979,130.542,199.498,130.524z"/>
				</g>
				<g id="XMLID_58_">
					<path fill="#9D9D9C" d="M217.652,125.027c0.699,0,1.758,0,1.758,3.699c0,1.51-0.174,3.233-0.357,5.058
						c-0.189,1.878-0.385,3.82-0.385,5.592c0,2.204,0.312,3.799,0.988,5.014c0.33,0.592,0.85,1.235,1.619,1.727
						c0.537-0.301,1.113-0.705,1.678-1.164c-1.127-0.495-1.818-1.327-2.225-2.065c-0.676-1.214-0.988-2.809-0.988-5.015
						c0-1.768,0.197-3.712,0.387-5.59c0.184-1.824,0.359-3.549,0.359-5.059c0-3.699-1.062-3.699-1.762-3.699
						c-0.367,0-0.801,0.064-1.281,0.186c-0.789,0.207-2.465,1.181-4.129,2.993c0.168,0.003,0.322,0.022,0.477,0.044
						c1.084-0.884,2.043-1.392,2.578-1.534C216.854,125.09,217.287,125.027,217.652,125.027z"/>
				</g>
				<g id="XMLID_57_">
					<path fill="#9D9D9C" d="M205.748,122.427c1.912,0,2.883,1.362,2.883,4.055c0,0.688-0.027,1.059-0.062,1.516l-0.148,2.199
						l-0.018,0.017c0,0-0.15,1.624-0.205,2.18c-0.195,2.014-0.406,4.097-0.406,6.093c0,2.322,0.168,4.902,1.133,7.32
						c0.469-0.15,0.969-0.32,1.512-0.522c-1.359-2.69-1.57-5.661-1.57-8.303c0-1.993,0.209-4.076,0.406-6.089
						c0.051-0.558,0.203-2.18,0.203-2.18l0.018-0.017l0.146-2.2c0.039-0.459,0.064-0.828,0.064-1.517
						c0-2.691-0.971-4.056-2.883-4.056c-0.385,0-0.803,0.058-1.23,0.168c-1.607,0.413-3.346,1.597-4.35,3.133
						c0.102-0.014,0.188-0.013,0.287-0.022c0.9-0.773,1.971-1.345,2.986-1.608C204.947,122.482,205.361,122.427,205.748,122.427z"/>
				</g>
				<g id="XMLID_56_">
					<path fill="#9D9D9C" d="M232.99,126.909c-0.355,0.444-0.734,0.876-1.143,1.289l-1.793,1.821l0.176,0.233l0.545-0.551
						C231.621,128.842,232.35,127.904,232.99,126.909z"/>
				</g>
				<g id="XMLID_55_">
					<path fill="#9D9D9C" d="M228.982,106.579c0.008,0.056,0.012,0.124,0.012,0.211c0,2.191-0.148,4.864-0.312,7.958
						c-0.227,4.122-0.477,8.795-0.477,13.9v1.844l-0.059-0.074l0.059,4.562c0.027,2.529,0.168,4.402,0.441,5.789
						c0.41-0.136,0.848-0.291,1.322-0.471c-0.443-1.439-0.654-3.607-0.693-6.823l-0.02-1.593l-0.273-0.359l0.266-0.268l-0.029-2.339
						l0.057,0.073v-1.846c0-5.103,0.254-9.775,0.477-13.897c0.17-3.094,0.316-5.768,0.316-7.959c0-0.085-0.006-0.156-0.014-0.209
						c-0.092,0.008-0.217,0.03-0.393,0.076c-1.367,0.347-3.383,1.68-4.648,2.609c0.062,0.199,0.121,0.415,0.178,0.634
						c1.127-0.747,2.426-1.495,3.395-1.741C228.764,106.61,228.893,106.589,228.982,106.579z"/>
				</g>
				<g id="XMLID_54_">
					<path fill="#9D9D9C" d="M240.236,119.098c0,0.698-0.395,1.733-1.211,3.013c1.541-1.977,2.279-3.561,2.279-4.519
						c0-0.312,0-1.146-2.521-1.146c-0.549,0-1.17,0.045-1.854,0.135c-0.041,0.482-0.111,0.948-0.182,1.409
						c0.34-0.027,0.664-0.042,0.965-0.042C240.236,117.948,240.236,118.782,240.236,119.098z"/>
				</g>
				<g id="XMLID_53_">
					<path fill="#9D9D9C" d="M230.58,130.711l1.395,1.84c0.66,0.873,1.336,1.886,2.047,2.958c0.973,1.463,2.029,3.045,3.209,4.495
						c1.779,1.602,3.951,2.786,6.701,2.786c0.867,0,1.771-0.121,2.689-0.357c0.979-0.247,2-0.61,3.045-1.088
						c0.062,0.395,0.094,0.774,0.094,1.138c0,0.545-0.08,1.031-0.229,1.465c0.854-0.662,1.299-1.649,1.299-2.969
						c0-0.362-0.033-0.741-0.094-1.136c-1.047,0.478-2.066,0.84-3.045,1.088c-0.914,0.236-1.818,0.356-2.688,0.356
						c-5.432,0-8.607-4.603-10.928-7.96c-0.664-0.963-1.289-1.872-1.883-2.561l-0.688-0.8c-0.066,0.051-0.121,0.1-0.186,0.15
						L230.58,130.711z"/>
				</g>
				<g id="XMLID_52_">
					<path fill="#9D9D9C" d="M90.816,159.166c4.23-0.769,7.74-2.426,10.627-3.971c0.48-0.338,0.961-0.68,1.441-1.016l-0.295-0.524
						c-2.902,1.555-6.434,3.234-10.699,4.006c-1.674,0.304-3.34,0.45-5.096,0.45c-1.172,0-2.389-0.068-3.635-0.205
						c-0.076,0.427-0.115,0.841-0.115,1.214c0,0.118,0.004,0.242,0.012,0.369c0.906,0.074,1.801,0.124,2.666,0.124
						C87.477,159.613,89.145,159.469,90.816,159.166z"/>
				</g>
				<g id="XMLID_51_">
					<path fill="#9D9D9C" d="M96.297,127.095c0.494-0.268,0.967-0.546,1.432-0.827c0.66-0.735,1.225-1.483,1.684-2.227
						C98.564,125.096,97.529,126.139,96.297,127.095z"/>
				</g>
				<g id="XMLID_50_">
					<path fill="#9D9D9C" d="M99.781,107.607c0.916-0.167,1.781-0.251,2.574-0.251c3.67,0,5.693,1.771,5.693,4.988
						c0,1.999-0.805,4.494-2.471,7.07c2.393-3.094,3.545-6.186,3.545-8.573c0-3.217-2.023-4.988-5.693-4.988
						c-0.791,0-1.66,0.083-2.576,0.25c-7.801,1.41-18.508,9.561-23.107,16.506C82.785,116.037,92.539,108.916,99.781,107.607z"/>
				</g>
				<g id="XMLID_49_">
					<path fill="#9D9D9C" d="M77.234,131.08c0.129-1.586,0.77-3.179,1.754-4.721c-1.18,1.48-2.066,3.034-2.518,4.6
						C76.699,131.043,76.957,131.075,77.234,131.08z"/>
				</g>
				<g id="XMLID_48_">
					<path fill="#9D9D9C" d="M87.688,125.992c0.047,0,0.086,0.004,0.115,0.005c0.014,0.063,0.027,0.165,0.027,0.319
						c0,1.31,0,2.545-0.096,3.854l-0.049,0.678l-0.02-0.006l-0.127,1.884c-0.164,2.397-0.246,4.555-0.246,6.413
						c0,2.849,0.252,6.127,1.721,8.579c0.564-0.229,1.117-0.461,1.625-0.678c-1.971-2.503-2.271-6.226-2.271-9.404
						c0-1.858,0.082-4.015,0.244-6.414l0.129-1.881l0.018,0.002l0.051-0.676c0.094-1.307,0.094-2.544,0.094-3.854
						c0-0.153-0.012-0.255-0.027-0.316c-0.027-0.005-0.066-0.007-0.115-0.007c-0.146,0-0.307,0.02-0.475,0.05
						c-1.404,0.255-3.459,1.405-4.789,2.246c0.078,0.231,0.148,0.479,0.215,0.734c1.166-0.656,2.498-1.296,3.504-1.477
						C87.381,126.012,87.539,125.992,87.688,125.992z"/>
				</g>
				<g id="XMLID_47_">
					<path fill="#9D9D9C" d="M103.65,143.744c1.006,2.359,2.045,4.802,3.221,6.929l0.656,1.185l-0.08,0.045l0.99,1.357
						c2.334,3.215,4.982,4.774,8.098,4.774c0.57,0,1.164-0.053,1.762-0.16c1.736-0.319,3.158-1.487,3.881-2.996
						c-0.754,0.746-1.715,1.294-2.809,1.492c-0.598,0.106-1.191,0.164-1.762,0.164c-3.111,0-5.762-1.562-8.098-4.775l-0.988-1.357
						l0.078-0.045l-0.654-1.187c-1.178-2.127-2.217-4.567-3.223-6.928c-2.283-5.367-4.646-10.914-8.445-12.292l-2.783-1.012
						c-0.631,0.35-1.291,0.674-1.982,0.968c0.105-0.013,0.215-0.03,0.332-0.053c0.309-0.056,0.613-0.083,0.908-0.083
						c1.879,0,3.146,0.997,4.104,2.605C99.723,134.539,101.717,139.202,103.65,143.744z"/>
				</g>
				<g id="XMLID_46_">
					<path fill="#9D9D9C" d="M127.584,153.139c0,0.672-0.182,1.376-0.535,2.07c1.062-1.134,1.607-2.405,1.607-3.574
						c0-2.714-2.939-4.468-7.492-4.468c-0.094,0-0.189,0-0.285,0.001c1.049,0.392,1.789,1.043,2.262,1.81
						C125.912,149.593,127.584,151.092,127.584,153.139z"/>
				</g>
				<g id="XMLID_45_">
					<path fill="#9D9D9C" d="M113.104,138.077h0.135l0.205-0.031c0.467-0.082,0.984-0.36,1.51-0.788
						c0.381-0.436,0.775-0.957,1.188-1.592c-0.564,0.484-1.125,0.787-1.623,0.879l-0.207,0.028h-0.133
						c-0.65,0-2.16-0.323-2.16-3.323c0-2.765,1.07-7.522,3.102-10.859c-2.725,3.234-4.176,9.145-4.176,12.362
						C110.943,137.751,112.455,138.077,113.104,138.077z"/>
				</g>
				<g id="XMLID_44_">
					<path fill="#9D9D9C" d="M115.93,118.923c0.148-0.027,0.289-0.041,0.422-0.041c0.451,0,0.848,0.188,1.189,0.557l0.682-0.713
						l0.844,2.234c0.168,0.45,0.312,0.895,0.438,1.341l0.875-0.362c0.816-0.338,1.5-0.558,2.025-0.649
						c0.109-0.021,0.203-0.034,0.281-0.046c-0.002,1.991-0.018,4.037-0.037,6.113c-0.02,2.3-0.039,4.637-0.039,6.933
						c-0.043,1.077,0.268,2.89,1.141,4.555c0.547,0.173,1.035,0.173,1.336,0.173c0.264,0,0.547-0.02,0.84-0.056
						c-1.727-1.961-2.301-4.73-2.242-6.175c0-2.295,0.02-4.632,0.039-6.933c0.018-2.076,0.035-4.122,0.035-6.11
						c-0.078,0.008-0.17,0.022-0.279,0.043c-0.527,0.093-1.209,0.311-2.027,0.649l-1.504,0.622l-0.5-1.548
						c-0.459-1.413-1.137-2.129-2.021-2.129c-0.133,0-0.275,0.013-0.422,0.038c-2.436,0.441-4.541,2.324-6.137,4.882
						C112.293,120.529,114.006,119.27,115.93,118.923z"/>
				</g>
				<g id="XMLID_43_">
					<path fill="#9D9D9C" d="M151.359,107.232l0.262,1.141c0.301,1.294,0.449,2.589,0.449,3.852c0,0.096-0.002,0.195-0.002,0.291
						c0.08,0.743,0.133,1.505,0.133,2.307c0,4.469-1.201,9.655-3.012,12.613c-0.764,1.986-1.641,3.77-2.582,5.238
						c3.572-4.423,6.537-13.633,6.537-21.952c0-1.261-0.15-2.559-0.447-3.85l-0.066-0.288c-0.014,0.005-0.025,0.013-0.041,0.02
						L151.359,107.232z"/>
				</g>
				<g id="XMLID_42_">
					<path fill="#9D9D9C" d="M140.248,101.436c0.672-0.122,1.355-0.183,2.035-0.183c3.316,0,6.199,1.435,7.904,3.939l0.768,1.131
						l1.199-0.661c1.9-1.048,3.865-2.189,5.766-3.293c5.301-3.079,10.783-6.266,14.047-6.854c0.52-0.095,1.016-0.142,1.469-0.142
						c2.984,0,3.629,2.075,3.717,3.545c0.318,0.025,0.639,0.044,0.965,0.079c0.076-0.434,0.117-0.843,0.117-1.217
						c0-1.459-0.484-3.909-3.729-3.909c-0.451,0-0.945,0.048-1.465,0.142c-3.262,0.589-8.746,3.775-14.047,6.854
						c-1.902,1.104-3.865,2.244-5.766,3.294l-1.199,0.658l-0.77-1.13c-1.705-2.505-4.586-3.94-7.902-3.94
						c-0.68,0-1.365,0.062-2.035,0.183c-2.504,0.452-5.148,1.873-6.236,4.089C136.408,102.662,138.367,101.775,140.248,101.436z"/>
				</g>
				<g id="XMLID_41_">
					<path fill="#9D9D9C" d="M148.023,106.798c-2.367,1.108-4.393,1.82-6.018,2.113c-0.482,0.088-0.949,0.134-1.387,0.134
						c-2.49,0-3.793-1.437-3.793-2.854c0-0.373,0.084-0.731,0.213-1.075c-0.811,0.703-1.287,1.596-1.287,2.578
						c0,0.286,0.068,0.569,0.172,0.846c0.895,0.567,2.191,0.884,3.801,0.884c0.867,0,1.814-0.093,2.818-0.275
						c2.037-0.366,4.086-0.976,6.451-1.91l-0.68-0.575L148.023,106.798z"/>
				</g>
				<g id="XMLID_40_">
					<path fill="#9D9D9C" d="M142.871,117.319c-0.686,2.381-1.033,4.55-1.033,6.47c0,2.231,0.178,3.894,0.537,5.085
						c0.654,2.146,1.924,2.466,2.621,2.466c0.137,0,0.273-0.012,0.412-0.037c1.049-0.19,2.02-1.17,2.855-2.618
						c-0.559,0.605-1.156,1.004-1.783,1.115c-0.139,0.025-0.275,0.035-0.41,0.035c-0.699,0.003-1.967-0.317-2.621-2.465
						c-0.361-1.188-0.537-2.853-0.537-5.084c0-1.921,0.346-4.09,1.031-6.469c-0.092,0.013-0.188,0.027-0.283,0.044
						c-1.307,0.239-2.854,0.991-3.154,2.074c-0.027,0.096-0.043,0.188-0.068,0.283c0.619-0.424,1.418-0.722,2.148-0.854
						C142.684,117.348,142.779,117.332,142.871,117.319z"/>
				</g>
				<g id="XMLID_39_">
					<path fill="#9D9D9C" d="M133.127,117.823c-1.475,4.524-1.809,7.689-1.809,9.629c0,1.605,0.217,2.925,0.645,3.915
						c0.803,1.863,2.158,2.064,2.703,2.064c0.152,0,0.309-0.012,0.467-0.041c0.207-0.038,0.412-0.098,0.611-0.183
						c-0.287,0.639-0.592,1.221-0.906,1.743c0.701-0.802,1.379-1.905,1.98-3.246c-0.201,0.085-0.404,0.146-0.611,0.184
						c-0.158,0.027-0.316,0.042-0.469,0.042c-0.545,0-1.898-0.201-2.703-2.065c-0.426-0.991-0.643-2.31-0.643-3.918
						c0-1.938,0.334-5.103,1.809-9.626c-0.096,0.015-0.191,0.028-0.285,0.046c-1.588,0.288-2.742,0.986-3.428,2.075
						c-0.141,0.222-0.271,0.462-0.4,0.704c0.684-0.636,1.6-1.067,2.756-1.275C132.936,117.854,133.031,117.838,133.127,117.823z"/>
				</g>
				<g id="XMLID_38_">
					<path fill="#9D9D9C" d="M136.184,217.556c-1.916,0-4.02,0.203-6.252,0.609c-5.586,1.008-10.053,3.176-13.684,5.16l-1.445,0.793
						l-0.656-1.512c-5.023-11.609-5.023-30.766-5.023-49.288v-8.725c-0.516-0.581-3.025-1.533-6.1-1.533
						c-0.744,0-1.443,0.058-2.078,0.172c-1.1,0.199-2.459,0.651-2.93,1.682c0.012,0.137,0.02,0.283,0.029,0.423
						c0.564-0.307,1.232-0.493,1.828-0.602c0.633-0.115,1.332-0.174,2.078-0.174c3.076,0,5.582,0.953,6.098,1.536v8.724
						c0,18.519,0,37.675,5.023,49.292l0.656,1.512l1.447-0.793c3.631-1.988,8.098-4.156,13.682-5.168
						c2.234-0.402,4.338-0.609,6.254-0.609c7.207,0,11.865,3.047,11.865,7.758c0,1.371-0.422,2.82-1.246,4.215
						c1.535-1.812,2.32-3.84,2.32-5.719C148.051,220.599,143.393,217.556,136.184,217.556z"/>
				</g>
				<g id="XMLID_37_">
					<path fill="#9D9D9C" d="M71.324,209.087c0,6.266,0.793,11.543,2.346,15.758c0.262-0.039,0.514-0.082,0.746-0.125
						c0.283-0.055,0.551-0.102,0.799-0.152c-1.871-4.402-2.816-10.105-2.816-16.98c0-4.98,0.469-9.926,0.977-14.254l-0.904,0.094
						C71.902,198.072,71.324,203.564,71.324,209.087z"/>
				</g>
				<g id="XMLID_36_">
					<path fill="#9D9D9C" d="M89.848,220.291c0.016-0.004,0.037-0.008,0.053-0.008c0.404-0.07,0.674-0.152,0.844-0.219
						c0.898-7.16,2.594-15.301,5.154-24.785l-0.654-0.062C92.598,204.818,90.832,213.041,89.848,220.291z"/>
				</g>
				<g id="XMLID_35_">
					<path fill="#9D9D9C" d="M75.283,168.559c2.59,0,4.502,0.771,4.646,1.882c2.756,22.913,5.273,26.819,5.752,27.374l1.031,1.191
						l1.141-1.082c0.07-0.066,0.619-0.613,1.453-1.93c-0.213,0.262-0.348,0.395-0.379,0.422l-1.143,1.086l-1.029-1.191
						c-0.477-0.547-2.996-4.461-5.754-27.373c-0.145-1.108-2.055-1.882-4.646-1.882c-0.828,0-1.684,0.077-2.547,0.231
						c-2.562,0.46-4.789,1.574-6.158,3.054c0.074,0.122,0.15,0.255,0.229,0.388c1.309-0.918,2.99-1.604,4.855-1.938
						C73.6,168.637,74.455,168.559,75.283,168.559z"/>
				</g>
				<g id="XMLID_34_">
					<path fill="#9D9D9C" d="M133.693,233.755c-1.389,0.254-2.732,0.379-3.998,0.379c-4.986,0-9.098-1.969-12.215-5.844
						l-0.611-0.766c-0.018,0.012-0.033,0.016-0.049,0.027l-1.506,0.879l1.092,1.359c3.119,3.879,7.23,5.848,12.217,5.848
						c1.264,0,2.609-0.129,3.996-0.379c2.18-0.398,3.994-1.828,5-3.711C136.594,232.662,135.24,233.47,133.693,233.755z"/>
				</g>
				<g id="XMLID_33_">
					<path fill="#9D9D9C" d="M92.559,234.751c4.338-0.785,8.539-2.312,13.223-4.805l1.449-0.77l-0.451-0.695
						c-4.652,2.469-8.834,3.984-13.148,4.766c-2.277,0.41-4.547,0.613-6.939,0.613c-1.99,0-4.072-0.148-6.209-0.434
						c-0.119,0.551-0.199,1.074-0.252,1.586c1.848,0.215,3.656,0.352,5.389,0.352C88.01,235.365,90.281,235.162,92.559,234.751z"/>
				</g>
				<g id="XMLID_32_">
					<path fill="#9D9D9C" d="M183.438,197.876c-0.131,0.02-0.262,0.035-0.385,0.035c-1.123,0-2.463-0.75-2.463-4.301
						c0-4.207,1.709-11.875,4.83-16.799c-3.807,4.713-5.902,13.631-5.902,18.299c0,3.555,1.34,4.301,2.461,4.301
						c0.125,0,0.254-0.012,0.383-0.035c1.305-0.234,2.908-1.637,4.289-3.855C185.557,196.857,184.412,197.697,183.438,197.876z"/>
				</g>
				<g id="XMLID_31_">
					<path fill="#9D9D9C" d="M200.914,203.849c-0.803-0.699-1.492-1.539-2.059-2.512c-1.146-1.699-1.994-5.988-1.994-8.746
						c0-3.551,0.225-7.051,0.438-10.438c0.215-3.332,0.412-6.477,0.412-9.613c0-0.123-0.01-0.199-0.006-0.227
						c-0.057-0.017-0.172-0.042-0.373-0.042c-0.232,0-0.51,0.031-0.834,0.091c-0.828,0.148-1.891,0.497-3.076,1.014l-1.539,0.666
						l-0.496-1.6c-0.791-2.551-2.014-3.844-3.643-3.844c-0.219,0-0.455,0.02-0.695,0.064c-3.434,0.621-6.439,3.208-8.789,6.786
						c2.168-2.789,4.785-4.754,7.717-5.283c0.24-0.043,0.475-0.067,0.695-0.067c1.627,0,2.852,1.295,3.643,3.844l0.496,1.604
						l1.535-0.669c1.189-0.516,2.25-0.866,3.078-1.013c0.322-0.061,0.602-0.09,0.832-0.09c0.203,0,0.32,0.023,0.375,0.039
						c-0.002,0.028,0.008,0.106,0.008,0.228c0,3.138-0.199,6.279-0.414,9.609c-0.215,3.393-0.438,6.893-0.438,10.439
						c0,2.762,0.852,7.047,1.994,8.75c0.271,0.461,0.572,0.891,0.898,1.293c0.486-0.012,1.004-0.059,1.557-0.16
						C200.461,203.935,200.688,203.896,200.914,203.849z"/>
				</g>
				<g id="XMLID_30_">
					<path fill="#9D9D9C" d="M185.104,199.794c0.996-1.273,2.035-2.945,3.125-5.164l-0.336-0.059
						C186.926,196.712,185.994,198.423,185.104,199.794z"/>
				</g>
				<g id="XMLID_29_">
					<path fill="#9D9D9C" d="M125.578,205.935c-0.129,0.02-0.254,0.039-0.375,0.039c-1.123,0-2.463-0.75-2.463-4.309
						c0-4.199,1.707-11.871,4.83-16.805c-3.805,4.723-5.902,13.645-5.902,18.309c0,3.555,1.338,4.301,2.463,4.301
						c0.121,0,0.246-0.008,0.373-0.031c1.311-0.234,2.916-1.641,4.299-3.859C127.705,204.919,126.559,205.763,125.578,205.935z"/>
				</g>
				<g id="XMLID_28_">
					<path fill="#9D9D9C" d="M127.248,207.853c0.996-1.277,2.037-2.949,3.131-5.172l-0.338-0.062
						C129.072,204.767,128.143,206.486,127.248,207.853z"/>
				</g>
				<g id="XMLID_27_">
					<path fill="#9D9D9C" d="M128.125,178.235c0.246-0.044,0.482-0.067,0.705-0.067c1.621,0,2.844,1.29,3.633,3.833l0.496,1.602
						l1.537-0.67c1.186-0.514,2.25-0.865,3.074-1.014c0.326-0.059,0.605-0.09,0.834-0.09c0.203,0,0.32,0.027,0.375,0.043
						c-0.002,0.025,0.01,0.105,0.01,0.23c0,3.135-0.201,6.273-0.412,9.602c-0.217,3.387-0.441,6.887-0.441,10.438
						c0,1.617,0,5.418,2.748,6.637l2.367,1.051l-0.211-2.07l-1.084-0.484c-2.744-1.219-2.744-5.016-2.744-6.637
						c0-3.551,0.223-7.047,0.438-10.438c0.211-3.324,0.412-6.469,0.412-9.602c0-0.121-0.012-0.203-0.008-0.229
						c-0.057-0.017-0.17-0.042-0.375-0.042c-0.23,0-0.508,0.033-0.834,0.089c-0.824,0.15-1.889,0.498-3.074,1.014l-1.537,0.668
						l-0.498-1.602c-0.789-2.542-2.01-3.833-3.631-3.833c-0.221,0-0.459,0.022-0.705,0.067c-3.436,0.623-6.441,3.204-8.793,6.786
						C122.572,180.732,125.191,178.766,128.125,178.235z"/>
				</g>
				<g id="XMLID_26_">
					<path fill="#9D9D9C" d="M152.678,206.498h0.578c-1.168-3.211-1.684-8.516-1.684-16.773v-6.5l-0.031,0.041l0.031-1.459v-0.52
						l0.014-0.016l0.061-2.746c0.148-6.761,0.422-12.274,0.641-16.705c0.195-3.939,0.352-7.055,0.352-9.579
						c0-11.124-5.691-11.124-7.561-11.124c-0.76,0-1.586,0.081-2.459,0.239c-3.191,0.578-6.459,2.588-8.033,5.371
						c1.744-1.994,4.377-3.4,6.959-3.867c0.873-0.158,1.701-0.24,2.459-0.24c1.869,0,7.561,0,7.561,11.124
						c0,2.524-0.154,5.637-0.35,9.578c-0.219,4.43-0.492,9.942-0.641,16.707l-0.062,2.746l-0.012,0.016v0.52l-0.031,1.457
						l0.031-0.041v6.502c0,8.258,0.518,13.559,1.682,16.773h-0.578l0.498,0.645c0.539-0.242,1.092-0.496,1.645-0.758
						L152.678,206.498z"/>
				</g>
				<g id="XMLID_25_">
					<path fill="#9D9D9C" d="M163.764,174c2.443,0,4.07,1.164,4.07,6.849c0,2.359-0.283,5.754-0.555,9.035
						c-0.287,3.449-0.584,7.012-0.584,9.66c0,3.406,0.496,5.84,1.568,7.66c0.852,1.445,2.061,2.426,3.58,2.988
						c0.58-0.406,1.152-0.84,1.684-1.266c-1.822-0.508-3.225-1.582-4.189-3.227c-1.07-1.82-1.57-4.254-1.57-7.66
						c0-2.648,0.297-6.211,0.586-9.66c0.273-3.281,0.555-6.672,0.555-9.035c0-5.683-1.627-6.847-4.07-6.847
						c-0.508,0-1.078,0.056-1.691,0.165c-1.57,0.284-5.041,2.136-8.119,5.923c0.123-0.039,0.246-0.065,0.367-0.094
						c2.66-2.707,5.35-4.087,6.678-4.324C162.688,174.057,163.256,174,163.764,174z"/>
				</g>
				<g id="XMLID_24_">
					<path fill="#9D9D9C" d="M224.012,154.382c0.461-0.083,0.885-0.123,1.262-0.123c1.305,0,2.514,0.368,2.514,3.044
						c0,0.312-0.023,0.614-0.053,0.906c0.295-0.096,0.584-0.192,0.889-0.279c0.113-0.547,0.236-1.323,0.236-2.132
						c0-2.675-1.209-3.043-2.512-3.043c-0.377,0-0.803,0.04-1.26,0.123c-1.994,0.361-3.867,1.931-5.537,4.535
						C220.936,155.705,222.436,154.664,224.012,154.382z"/>
				</g>
				<g id="XMLID_23_">
					<path fill="#9D9D9C" d="M205.506,160.032c-0.492,0-1,0.047-1.516,0.141c-2.879,0.521-5.895,2.445-7.422,5.146
						c1.652-1.899,4.039-3.228,6.346-3.643c0.518-0.093,1.027-0.141,1.52-0.141c3.789,0,5.877,2.669,5.877,7.517
						c0,1.556-0.076,3.24-0.141,4.725l2.508,0.303c-2.367,6.286-2.793,12.989-2.793,17c0,3.223,0.773,5.68,1.793,7.672
						c0.521-0.148,1.062-0.301,1.641-0.48c-1.291-2.16-2.359-4.895-2.359-8.695c0-4.012,0.426-10.708,2.793-17l-2.512-0.301
						c0.07-1.484,0.145-3.169,0.145-4.727C211.385,162.7,209.295,160.032,205.506,160.032z"/>
				</g>
				<g id="XMLID_22_">
					<path fill="#9D9D9C" d="M216.684,166.767c-0.637,0.817-1.215,1.678-1.736,2.562c-0.08,0.321-0.156,0.634-0.23,0.963
						C215.283,169.075,215.936,167.895,216.684,166.767z"/>
				</g>
				<g id="XMLID_21_">
					<path fill="#9D9D9C" d="M226.201,184.193c0-2.828,0.588-5.926,1.16-8.924c0.461-2.427,0.898-4.716,0.898-6.365
						c0-1.955-0.508-1.955-0.949-1.955c-0.184,0-0.391,0.021-0.621,0.062c-2.211,0.399-5.293,1.985-6.891,2.867
						c0.078,0.26,0.139,0.549,0.207,0.818c1.664-0.854,3.896-1.872,5.613-2.182c0.227-0.042,0.436-0.062,0.613-0.062
						c0.449,0,0.953,0,0.953,1.955c0,1.646-0.436,3.937-0.898,6.361c-0.57,2.995-1.16,6.092-1.16,8.932
						c0,4.051,0.879,7.336,2.713,10.125c0.627-0.242,1.18-0.473,1.646-0.676C227.252,192.189,226.201,188.65,226.201,184.193z"/>
				</g>
				<g id="XMLID_20_">
					<path fill="#9D9D9C" d="M293.182,154.34c0.445,0,0.953,0,0.953,1.964c0,1.643-0.438,3.928-0.898,6.35
						c-0.57,2.998-1.162,6.1-1.162,8.938c0,4.055,0.881,7.339,2.717,10.13c0.623-0.244,1.18-0.475,1.641-0.678
						c-2.234-2.96-3.285-6.496-3.285-10.957c0-2.837,0.59-5.937,1.16-8.937c0.465-2.423,0.9-4.709,0.9-6.352
						c0-1.964-0.506-1.964-0.953-1.964c-0.182,0-0.387,0.021-0.615,0.062c-2.211,0.403-5.295,1.988-6.895,2.872
						c0.082,0.258,0.141,0.546,0.211,0.818c1.664-0.855,3.895-1.874,5.611-2.188C292.795,154.361,293.002,154.34,293.182,154.34z"/>
				</g>
				<g id="XMLID_19_">
					<path fill="#9D9D9C" d="M251.77,178.842c-0.02,1.414-0.572,2.996-1.527,4.55c1.607-2.004,2.572-4.174,2.598-6.055v-0.032
						l-1.051-0.105L251.77,178.842z"/>
				</g>
				<g id="XMLID_18_">
					<path fill="#9D9D9C" d="M276.674,157.176c2.441,0,4.066,1.164,4.066,6.844c0,2.351-0.27,4.985-0.555,7.774
						c-0.289,2.831-0.586,5.757-0.586,8.419c0,3.402,0.5,5.835,1.57,7.66c0.852,1.441,2.059,2.422,3.572,2.984
						c0.586-0.406,1.154-0.84,1.686-1.266c-1.816-0.508-3.219-1.582-4.184-3.219c-1.074-1.824-1.57-4.262-1.57-7.663
						c0-2.663,0.295-5.588,0.586-8.417c0.281-2.792,0.553-5.426,0.553-7.775c0-5.682-1.627-6.846-4.066-6.846
						c-0.508,0-1.076,0.056-1.697,0.168c-1.572,0.284-5.047,2.136-8.117,5.917c0.121-0.042,0.242-0.064,0.367-0.094
						c2.652-2.701,5.348-4.08,6.68-4.32C275.596,157.231,276.164,157.176,276.674,157.176z"/>
				</g>
				<g id="XMLID_17_">
					<path fill="#9D9D9C" d="M241.854,188.033c-2.875,0-5.492-2.621-5.492-5.5c0-0.582,0.109-1.332,0.486-2.117
						c-1.279,1.285-1.561,2.672-1.561,3.623c0,2.787,2.465,5.33,5.238,5.482c1.742-0.395,3.381-1.078,4.861-1.953
						c0.361-0.387,0.643-0.82,0.854-1.293c-0.863,0.82-2.062,1.406-3.564,1.68C242.404,188.009,242.127,188.033,241.854,188.033z"/>
				</g>
				<g id="XMLID_16_">
					<path fill="#9D9D9C" d="M243.967,171.263c2.934,1.155,5.961,2.351,7.18,4.787l0.393,0.785l0.879,0.043
						c0.143,0.008,0.287,0.023,0.428,0.036l0.016-1.215l1.633,0.164c0.248,0.023,0.496,0.07,0.746,0.117
						c0.141,0.024,0.275,0.052,0.416,0.069l0.377,0.051l0.02-0.467c0.004-0.015,0.004-0.026,0.004-0.04l-0.547-0.042
						c-0.283-0.022-0.561-0.05-0.838-0.077c-0.395-0.043-0.783-0.079-1.182-0.101l-0.883-0.039l-0.391-0.79
						c-1.211-2.434-4.246-3.63-7.178-4.786c-3.604-1.421-7.33-2.889-7.33-6.857c0-0.64,0.172-1.271,0.465-1.863
						c-0.914,0.96-1.535,2.146-1.535,3.368C236.639,168.371,240.363,169.843,243.967,171.263z"/>
				</g>
				<g id="XMLID_15_">
					<path fill="#9D9D9C" d="M238.496,178.4c0.783-0.635,1.859-1.22,3.299-1.702l-0.512-0.386l-0.621,0.2
						c-4.078,1.291-6.881,3.704-8.285,6.104C233.764,180.974,235.814,179.439,238.496,178.4z"/>
				</g>
				<g id="XMLID_14_">
					<path fill="#9D9D9C" d="M244.658,154.809c0.895-0.162,1.762-0.244,2.582-0.244c1.902,0,5.098,0.438,5.098,3.375
						c0,0.803-0.285,1.767-0.85,2.761c1.287-1.489,1.92-3.058,1.92-4.265c0-2.937-3.195-3.374-5.098-3.374
						c-0.814,0-1.684,0.082-2.582,0.243c-4.48,0.808-9.07,3.438-11.137,6.972C236.939,157.51,240.838,155.496,244.658,154.809z"/>
				</g>
				<g id="XMLID_13_">
					<path fill="#9D9D9C" d="M254.451,126.025c0.871-0.157,1.699-0.237,2.457-0.237c1.869,0,7.562,0,7.562,11.114
						c0,2.532-0.156,5.65-0.352,9.599c-0.219,4.428-0.492,9.939-0.641,16.698l-0.062,2.744l-0.008,0.015v0.524l-0.035,1.464
						l0.035-0.043v6.488c0,8.235,0.52,13.598,1.688,16.848c0.484-0.141,0.984-0.285,1.508-0.445
						c-1.475-3.074-2.125-8.707-2.125-17.906v-6.487l-0.033,0.045l0.033-1.465v-0.526l0.012-0.015l0.061-2.744
						c0.146-6.758,0.422-12.271,0.639-16.699c0.197-3.947,0.352-7.064,0.352-9.599c0-11.112-5.691-11.112-7.562-11.112
						c-0.758,0-1.582,0.079-2.457,0.238c-3.191,0.575-6.461,2.584-8.031,5.368C249.236,127.897,251.865,126.491,254.451,126.025z"/>
				</g>
			</g>
			<g id="XMLID_217_">
				<g id="XMLID_240_">
					<path id="XMLID_12_" fill-rule="evenodd" clip-rule="evenodd" d="M206.887,116.289c-1.236,0.202-2.523,0.729-3.729,1.664
						c1.645,0.821,2.834,2.469,2.834,7.142c0,4.671-0.455,52.467-0.547,55.485c-0.092,3.02,2.654,5.312,1.74-2.289
						c-0.918-7.599,0-54.112,0.914-57.132c0.258-0.852,0.711-1.325,1.248-1.581C208.314,118.636,207.492,117.526,206.887,116.289z"
						/>
					<path id="XMLID_11_" fill-rule="evenodd" clip-rule="evenodd" d="M207.367,188.958c0,0.984-0.377,1.789-0.844,1.789
						c-0.463,0-0.846-0.805-0.846-1.789s0.383-1.789,0.846-1.789C206.99,187.169,207.367,187.974,207.367,188.958z"/>
				</g>
				<g id="XMLID_239_">
					<path id="XMLID_10_" fill-rule="evenodd" clip-rule="evenodd" d="M212.842,174.599c0,0.771-0.301,1.393-0.68,1.393
						s-0.684-0.622-0.684-1.393c0-0.766,0.305-1.387,0.684-1.387S212.842,173.833,212.842,174.599z"/>
					<path id="XMLID_9_" fill-rule="evenodd" clip-rule="evenodd" d="M213.439,121.834c-0.711-0.206-1.379-0.459-1.996-0.787
						c0.219,0.907,0.289,2.164,0.289,3.857c0,3.636-0.371,40.825-0.447,43.175c-0.072,2.349,2.15,4.135,1.408-1.776
						c-0.742-5.915,0-42.108,0.742-44.46C213.436,121.838,213.436,121.838,213.439,121.834z"/>
				</g>
			</g>
			<g id="XMLID_214_">
				<g id="XMLID_216_">
					<path id="XMLID_8_" fill-rule="evenodd" clip-rule="evenodd" d="M142.146,138.415c1.646,0.82,2.838,2.468,2.838,7.141
						c0,4.672-0.457,52.465-0.549,55.485c-0.092,3.016,2.654,5.316,1.74-2.289c-0.916-7.602,0-54.111,0.914-57.134
						c0.916-3.02,4.211-1.649,5.584-0.457C153.043,137.499,146.998,134.658,142.146,138.415z"/>
					<path id="XMLID_7_" fill-rule="evenodd" clip-rule="evenodd" d="M146.357,209.419c0,0.984-0.377,1.789-0.844,1.789
						c-0.463,0-0.842-0.805-0.842-1.789c0-0.988,0.379-1.785,0.842-1.785C145.98,207.634,146.357,208.431,146.357,209.419z"/>
				</g>
				<g id="XMLID_215_">
					<ellipse id="XMLID_6_" fill-rule="evenodd" clip-rule="evenodd" cx="151.15" cy="195.06" rx="0.682" ry="1.391"/>
					<path id="XMLID_5_" fill-rule="evenodd" clip-rule="evenodd" d="M148.914,139.831c1.555,0.133,1.807,1.905,1.807,5.534
						c0,3.636-0.367,40.824-0.445,43.175c-0.072,2.348,2.152,4.133,1.408-1.777c-0.742-5.914,0-42.107,0.744-44.458
						c0.74-2.348,3.404-1.28,4.52-0.357C157.24,139.098,152.842,136.908,148.914,139.831z"/>
				</g>
			</g>
			<g id="XMLID_211_">
				<g id="XMLID_213_">
					<path id="XMLID_4_" fill-rule="evenodd" clip-rule="evenodd" d="M73.986,135.523c-1.035-0.088-1.992-0.281-2.869-0.584
						c0.426,1.081,0.682,2.56,0.682,4.693c0,4.671-0.457,52.466-0.547,55.478c-0.092,3.023,2.654,5.32,1.74-2.285
						c-0.918-7.598,0-54.11,0.914-57.132C73.926,135.627,73.965,135.585,73.986,135.523z"/>
					<path id="XMLID_3_" fill-rule="evenodd" clip-rule="evenodd" d="M73.174,203.498c0,0.984-0.377,1.789-0.844,1.789
						c-0.463,0-0.842-0.805-0.842-1.789c0-0.992,0.379-1.789,0.842-1.789C72.797,201.708,73.174,202.505,73.174,203.498z"/>
				</g>
				<g id="XMLID_212_">
					<path id="XMLID_2_" fill-rule="evenodd" clip-rule="evenodd" d="M78.648,189.134c0,0.773-0.303,1.391-0.684,1.391
						c-0.377,0-0.682-0.617-0.682-1.391c0-0.77,0.305-1.391,0.682-1.391C78.346,187.744,78.648,188.365,78.648,189.134z"/>
					<path id="XMLID_1_" fill-rule="evenodd" clip-rule="evenodd" d="M79.158,136.891c-0.672-0.278-1.291-0.617-1.867-1.007
						c0.176,0.886,0.246,2.018,0.246,3.558c0,3.639-0.369,40.826-0.445,43.175c-0.072,2.35,2.15,4.127,1.408-1.777
						C77.787,175.15,78.445,141.522,79.158,136.891z"/>
				</g>
			</g>
		</g>
	</g>
</g>
</svg>
