<?xml version="1.0" standalone="no"?>
<svg xmlns="http://www.w3.org/2000/svg" version="1.1" width="250" height="250">
	<!-- Created with https://api.qrserver.com (QR Code API, see goQR.me/api for information) -->
	<title>QR Code</title>
	<desc>http://rawfunkmaharishi.uk/</desc>
	<rect style="fill:rgb(255, 255, 255);fill-opacity:1" x="0" y="0" width="250" height="250" />
	<g id="elements">
		<path style="fill:rgb(75, 112, 105)" d="M 0,0 l 10,0 0,10 -10,0 z M 10,0 l 10,0 0,10 -10,0 z M 20,0 l 10,0 0,10 -10,0 z M 30,0 l 10,0 0,10 -10,0 z M 40,0 l 10,0 0,10 -10,0 z M 50,0 l 10,0 0,10 -10,0 z M 60,0 l 10,0 0,10 -10,0 z M 100,0 l 10,0 0,10 -10,0 z M 120,0 l 10,0 0,10 -10,0 z M 160,0 l 10,0 0,10 -10,0 z M 180,0 l 10,0 0,10 -10,0 z M 190,0 l 10,0 0,10 -10,0 z M 200,0 l 10,0 0,10 -10,0 z M 210,0 l 10,0 0,10 -10,0 z M 220,0 l 10,0 0,10 -10,0 z M 230,0 l 10,0 0,10 -10,0 z M 240,0 l 10,0 0,10 -10,0 z M 0,10 l 10,0 0,10 -10,0 z M 60,10 l 10,0 0,10 -10,0 z M 80,10 l 10,0 0,10 -10,0 z M 100,10 l 10,0 0,10 -10,0 z M 150,10 l 10,0 0,10 -10,0 z M 180,10 l 10,0 0,10 -10,0 z M 240,10 l 10,0 0,10 -10,0 z M 0,20 l 10,0 0,10 -10,0 z M 20,20 l 10,0 0,10 -10,0 z M 30,20 l 10,0 0,10 -10,0 z M 40,20 l 10,0 0,10 -10,0 z M 60,20 l 10,0 0,10 -10,0 z M 120,20 l 10,0 0,10 -10,0 z M 140,20 l 10,0 0,10 -10,0 z M 150,20 l 10,0 0,10 -10,0 z M 180,20 l 10,0 0,10 -10,0 z M 200,20 l 10,0 0,10 -10,0 z M 210,20 l 10,0 0,10 -10,0 z M 220,20 l 10,0 0,10 -10,0 z M 240,20 l 10,0 0,10 -10,0 z M 0,30 l 10,0 0,10 -10,0 z M 20,30 l 10,0 0,10 -10,0 z M 30,30 l 10,0 0,10 -10,0 z M 40,30 l 10,0 0,10 -10,0 z M 60,30 l 10,0 0,10 -10,0 z M 80,30 l 10,0 0,10 -10,0 z M 90,30 l 10,0 0,10 -10,0 z M 100,30 l 10,0 0,10 -10,0 z M 120,30 l 10,0 0,10 -10,0 z M 130,30 l 10,0 0,10 -10,0 z M 140,30 l 10,0 0,10 -10,0 z M 180,30 l 10,0 0,10 -10,0 z M 200,30 l 10,0 0,10 -10,0 z M 210,30 l 10,0 0,10 -10,0 z M 220,30 l 10,0 0,10 -10,0 z M 240,30 l 10,0 0,10 -10,0 z M 0,40 l 10,0 0,10 -10,0 z M 20,40 l 10,0 0,10 -10,0 z M 30,40 l 10,0 0,10 -10,0 z M 40,40 l 10,0 0,10 -10,0 z M 60,40 l 10,0 0,10 -10,0 z M 90,40 l 10,0 0,10 -10,0 z M 140,40 l 10,0 0,10 -10,0 z M 160,40 l 10,0 0,10 -10,0 z M 180,40 l 10,0 0,10 -10,0 z M 200,40 l 10,0 0,10 -10,0 z M 210,40 l 10,0 0,10 -10,0 z M 220,40 l 10,0 0,10 -10,0 z M 240,40 l 10,0 0,10 -10,0 z M 0,50 l 10,0 0,10 -10,0 z M 60,50 l 10,0 0,10 -10,0 z M 80,50 l 10,0 0,10 -10,0 z M 90,50 l 10,0 0,10 -10,0 z M 110,50 l 10,0 0,10 -10,0 z M 120,50 l 10,0 0,10 -10,0 z M 130,50 l 10,0 0,10 -10,0 z M 150,50 l 10,0 0,10 -10,0 z M 160,50 l 10,0 0,10 -10,0 z M 180,50 l 10,0 0,10 -10,0 z M 240,50 l 10,0 0,10 -10,0 z M 0,60 l 10,0 0,10 -10,0 z M 10,60 l 10,0 0,10 -10,0 z M 20,60 l 10,0 0,10 -10,0 z M 30,60 l 10,0 0,10 -10,0 z M 40,60 l 10,0 0,10 -10,0 z M 50,60 l 10,0 0,10 -10,0 z M 60,60 l 10,0 0,10 -10,0 z M 80,60 l 10,0 0,10 -10,0 z M 100,60 l 10,0 0,10 -10,0 z M 120,60 l 10,0 0,10 -10,0 z M 140,60 l 10,0 0,10 -10,0 z M 160,60 l 10,0 0,10 -10,0 z M 180,60 l 10,0 0,10 -10,0 z M 190,60 l 10,0 0,10 -10,0 z M 200,60 l 10,0 0,10 -10,0 z M 210,60 l 10,0 0,10 -10,0 z M 220,60 l 10,0 0,10 -10,0 z M 230,60 l 10,0 0,10 -10,0 z M 240,60 l 10,0 0,10 -10,0 z M 90,70 l 10,0 0,10 -10,0 z M 100,70 l 10,0 0,10 -10,0 z M 110,70 l 10,0 0,10 -10,0 z M 150,70 l 10,0 0,10 -10,0 z M 0,80 l 10,0 0,10 -10,0 z M 10,80 l 10,0 0,10 -10,0 z M 20,80 l 10,0 0,10 -10,0 z M 30,80 l 10,0 0,10 -10,0 z M 40,80 l 10,0 0,10 -10,0 z M 60,80 l 10,0 0,10 -10,0 z M 70,80 l 10,0 0,10 -10,0 z M 80,80 l 10,0 0,10 -10,0 z M 90,80 l 10,0 0,10 -10,0 z M 110,80 l 10,0 0,10 -10,0 z M 120,80 l 10,0 0,10 -10,0 z M 130,80 l 10,0 0,10 -10,0 z M 140,80 l 10,0 0,10 -10,0 z M 150,80 l 10,0 0,10 -10,0 z M 170,80 l 10,0 0,10 -10,0 z M 190,80 l 10,0 0,10 -10,0 z M 210,80 l 10,0 0,10 -10,0 z M 230,80 l 10,0 0,10 -10,0 z M 0,90 l 10,0 0,10 -10,0 z M 10,90 l 10,0 0,10 -10,0 z M 30,90 l 10,0 0,10 -10,0 z M 40,90 l 10,0 0,10 -10,0 z M 80,90 l 10,0 0,10 -10,0 z M 100,90 l 10,0 0,10 -10,0 z M 120,90 l 10,0 0,10 -10,0 z M 130,90 l 10,0 0,10 -10,0 z M 160,90 l 10,0 0,10 -10,0 z M 170,90 l 10,0 0,10 -10,0 z M 190,90 l 10,0 0,10 -10,0 z M 230,90 l 10,0 0,10 -10,0 z M 10,100 l 10,0 0,10 -10,0 z M 20,100 l 10,0 0,10 -10,0 z M 30,100 l 10,0 0,10 -10,0 z M 40,100 l 10,0 0,10 -10,0 z M 60,100 l 10,0 0,10 -10,0 z M 70,100 l 10,0 0,10 -10,0 z M 100,100 l 10,0 0,10 -10,0 z M 150,100 l 10,0 0,10 -10,0 z M 160,100 l 10,0 0,10 -10,0 z M 170,100 l 10,0 0,10 -10,0 z M 180,100 l 10,0 0,10 -10,0 z M 190,100 l 10,0 0,10 -10,0 z M 210,100 l 10,0 0,10 -10,0 z M 230,100 l 10,0 0,10 -10,0 z M 240,100 l 10,0 0,10 -10,0 z M 10,110 l 10,0 0,10 -10,0 z M 30,110 l 10,0 0,10 -10,0 z M 70,110 l 10,0 0,10 -10,0 z M 110,110 l 10,0 0,10 -10,0 z M 140,110 l 10,0 0,10 -10,0 z M 150,110 l 10,0 0,10 -10,0 z M 160,110 l 10,0 0,10 -10,0 z M 170,110 l 10,0 0,10 -10,0 z M 240,110 l 10,0 0,10 -10,0 z M 20,120 l 10,0 0,10 -10,0 z M 30,120 l 10,0 0,10 -10,0 z M 40,120 l 10,0 0,10 -10,0 z M 60,120 l 10,0 0,10 -10,0 z M 70,120 l 10,0 0,10 -10,0 z M 80,120 l 10,0 0,10 -10,0 z M 90,120 l 10,0 0,10 -10,0 z M 100,120 l 10,0 0,10 -10,0 z M 110,120 l 10,0 0,10 -10,0 z M 120,120 l 10,0 0,10 -10,0 z M 130,120 l 10,0 0,10 -10,0 z M 140,120 l 10,0 0,10 -10,0 z M 170,120 l 10,0 0,10 -10,0 z M 180,120 l 10,0 0,10 -10,0 z M 200,120 l 10,0 0,10 -10,0 z M 220,120 l 10,0 0,10 -10,0 z M 230,120 l 10,0 0,10 -10,0 z M 240,120 l 10,0 0,10 -10,0 z M 0,130 l 10,0 0,10 -10,0 z M 20,130 l 10,0 0,10 -10,0 z M 30,130 l 10,0 0,10 -10,0 z M 40,130 l 10,0 0,10 -10,0 z M 70,130 l 10,0 0,10 -10,0 z M 110,130 l 10,0 0,10 -10,0 z M 120,130 l 10,0 0,10 -10,0 z M 140,130 l 10,0 0,10 -10,0 z M 160,130 l 10,0 0,10 -10,0 z M 190,130 l 10,0 0,10 -10,0 z M 210,130 l 10,0 0,10 -10,0 z M 230,130 l 10,0 0,10 -10,0 z M 0,140 l 10,0 0,10 -10,0 z M 20,140 l 10,0 0,10 -10,0 z M 40,140 l 10,0 0,10 -10,0 z M 60,140 l 10,0 0,10 -10,0 z M 80,140 l 10,0 0,10 -10,0 z M 90,140 l 10,0 0,10 -10,0 z M 130,140 l 10,0 0,10 -10,0 z M 150,140 l 10,0 0,10 -10,0 z M 160,140 l 10,0 0,10 -10,0 z M 170,140 l 10,0 0,10 -10,0 z M 180,140 l 10,0 0,10 -10,0 z M 200,140 l 10,0 0,10 -10,0 z M 210,140 l 10,0 0,10 -10,0 z M 230,140 l 10,0 0,10 -10,0 z M 240,140 l 10,0 0,10 -10,0 z M 0,150 l 10,0 0,10 -10,0 z M 30,150 l 10,0 0,10 -10,0 z M 110,150 l 10,0 0,10 -10,0 z M 120,150 l 10,0 0,10 -10,0 z M 140,150 l 10,0 0,10 -10,0 z M 210,150 l 10,0 0,10 -10,0 z M 240,150 l 10,0 0,10 -10,0 z M 0,160 l 10,0 0,10 -10,0 z M 20,160 l 10,0 0,10 -10,0 z M 30,160 l 10,0 0,10 -10,0 z M 40,160 l 10,0 0,10 -10,0 z M 50,160 l 10,0 0,10 -10,0 z M 60,160 l 10,0 0,10 -10,0 z M 90,160 l 10,0 0,10 -10,0 z M 110,160 l 10,0 0,10 -10,0 z M 120,160 l 10,0 0,10 -10,0 z M 130,160 l 10,0 0,10 -10,0 z M 140,160 l 10,0 0,10 -10,0 z M 160,160 l 10,0 0,10 -10,0 z M 170,160 l 10,0 0,10 -10,0 z M 180,160 l 10,0 0,10 -10,0 z M 190,160 l 10,0 0,10 -10,0 z M 200,160 l 10,0 0,10 -10,0 z M 220,160 l 10,0 0,10 -10,0 z M 80,170 l 10,0 0,10 -10,0 z M 90,170 l 10,0 0,10 -10,0 z M 100,170 l 10,0 0,10 -10,0 z M 110,170 l 10,0 0,10 -10,0 z M 130,170 l 10,0 0,10 -10,0 z M 150,170 l 10,0 0,10 -10,0 z M 160,170 l 10,0 0,10 -10,0 z M 200,170 l 10,0 0,10 -10,0 z M 210,170 l 10,0 0,10 -10,0 z M 220,170 l 10,0 0,10 -10,0 z M 0,180 l 10,0 0,10 -10,0 z M 10,180 l 10,0 0,10 -10,0 z M 20,180 l 10,0 0,10 -10,0 z M 30,180 l 10,0 0,10 -10,0 z M 40,180 l 10,0 0,10 -10,0 z M 50,180 l 10,0 0,10 -10,0 z M 60,180 l 10,0 0,10 -10,0 z M 80,180 l 10,0 0,10 -10,0 z M 100,180 l 10,0 0,10 -10,0 z M 160,180 l 10,0 0,10 -10,0 z M 180,180 l 10,0 0,10 -10,0 z M 200,180 l 10,0 0,10 -10,0 z M 210,180 l 10,0 0,10 -10,0 z M 220,180 l 10,0 0,10 -10,0 z M 230,180 l 10,0 0,10 -10,0 z M 240,180 l 10,0 0,10 -10,0 z M 0,190 l 10,0 0,10 -10,0 z M 60,190 l 10,0 0,10 -10,0 z M 90,190 l 10,0 0,10 -10,0 z M 100,190 l 10,0 0,10 -10,0 z M 160,190 l 10,0 0,10 -10,0 z M 200,190 l 10,0 0,10 -10,0 z M 210,190 l 10,0 0,10 -10,0 z M 230,190 l 10,0 0,10 -10,0 z M 0,200 l 10,0 0,10 -10,0 z M 20,200 l 10,0 0,10 -10,0 z M 30,200 l 10,0 0,10 -10,0 z M 40,200 l 10,0 0,10 -10,0 z M 60,200 l 10,0 0,10 -10,0 z M 80,200 l 10,0 0,10 -10,0 z M 90,200 l 10,0 0,10 -10,0 z M 100,200 l 10,0 0,10 -10,0 z M 130,200 l 10,0 0,10 -10,0 z M 140,200 l 10,0 0,10 -10,0 z M 150,200 l 10,0 0,10 -10,0 z M 160,200 l 10,0 0,10 -10,0 z M 170,200 l 10,0 0,10 -10,0 z M 180,200 l 10,0 0,10 -10,0 z M 190,200 l 10,0 0,10 -10,0 z M 200,200 l 10,0 0,10 -10,0 z M 210,200 l 10,0 0,10 -10,0 z M 220,200 l 10,0 0,10 -10,0 z M 0,210 l 10,0 0,10 -10,0 z M 20,210 l 10,0 0,10 -10,0 z M 30,210 l 10,0 0,10 -10,0 z M 40,210 l 10,0 0,10 -10,0 z M 60,210 l 10,0 0,10 -10,0 z M 80,210 l 10,0 0,10 -10,0 z M 90,210 l 10,0 0,10 -10,0 z M 110,210 l 10,0 0,10 -10,0 z M 130,210 l 10,0 0,10 -10,0 z M 150,210 l 10,0 0,10 -10,0 z M 160,210 l 10,0 0,10 -10,0 z M 170,210 l 10,0 0,10 -10,0 z M 180,210 l 10,0 0,10 -10,0 z M 190,210 l 10,0 0,10 -10,0 z M 200,210 l 10,0 0,10 -10,0 z M 220,210 l 10,0 0,10 -10,0 z M 230,210 l 10,0 0,10 -10,0 z M 240,210 l 10,0 0,10 -10,0 z M 0,220 l 10,0 0,10 -10,0 z M 20,220 l 10,0 0,10 -10,0 z M 30,220 l 10,0 0,10 -10,0 z M 40,220 l 10,0 0,10 -10,0 z M 60,220 l 10,0 0,10 -10,0 z M 80,220 l 10,0 0,10 -10,0 z M 90,220 l 10,0 0,10 -10,0 z M 120,220 l 10,0 0,10 -10,0 z M 160,220 l 10,0 0,10 -10,0 z M 170,220 l 10,0 0,10 -10,0 z M 190,220 l 10,0 0,10 -10,0 z M 220,220 l 10,0 0,10 -10,0 z M 240,220 l 10,0 0,10 -10,0 z M 0,230 l 10,0 0,10 -10,0 z M 60,230 l 10,0 0,10 -10,0 z M 80,230 l 10,0 0,10 -10,0 z M 90,230 l 10,0 0,10 -10,0 z M 110,230 l 10,0 0,10 -10,0 z M 140,230 l 10,0 0,10 -10,0 z M 150,230 l 10,0 0,10 -10,0 z M 160,230 l 10,0 0,10 -10,0 z M 170,230 l 10,0 0,10 -10,0 z M 180,230 l 10,0 0,10 -10,0 z M 190,230 l 10,0 0,10 -10,0 z M 200,230 l 10,0 0,10 -10,0 z M 210,230 l 10,0 0,10 -10,0 z M 240,230 l 10,0 0,10 -10,0 z M 0,240 l 10,0 0,10 -10,0 z M 10,240 l 10,0 0,10 -10,0 z M 20,240 l 10,0 0,10 -10,0 z M 30,240 l 10,0 0,10 -10,0 z M 40,240 l 10,0 0,10 -10,0 z M 50,240 l 10,0 0,10 -10,0 z M 60,240 l 10,0 0,10 -10,0 z M 80,240 l 10,0 0,10 -10,0 z M 90,240 l 10,0 0,10 -10,0 z M 110,240 l 10,0 0,10 -10,0 z M 120,240 l 10,0 0,10 -10,0 z M 130,240 l 10,0 0,10 -10,0 z M 170,240 l 10,0 0,10 -10,0 z M 180,240 l 10,0 0,10 -10,0 z M 190,240 l 10,0 0,10 -10,0 z M 200,240 l 10,0 0,10 -10,0 z M 210,240 l 10,0 0,10 -10,0 z M 220,240 l 10,0 0,10 -10,0 z M 230,240 l 10,0 0,10 -10,0 z M 240,240 l 10,0 0,10 -10,0 z " />
	</g>
</svg>
