<?xml version="1.0" standalone="no"?>
<svg xmlns="http://www.w3.org/2000/svg" version="1.1" width="290" height="290">
	<!-- Created with https://api.qrserver.com (QR Code API, see goQR.me/api for information) -->
	<title>QR Code</title>
	<desc>http://rawfunkmaharishi.uk/</desc>
	<rect style="fill:rgb(134, 202, 188);fill-opacity:1" x="0" y="0" width="290" height="290" />
	<g id="elements">
		<path style="fill:rgb(0, 0, 0)" d="M 20,20 l 10,0 0,10 -10,0 z M 30,20 l 10,0 0,10 -10,0 z M 40,20 l 10,0 0,10 -10,0 z M 50,20 l 10,0 0,10 -10,0 z M 60,20 l 10,0 0,10 -10,0 z M 70,20 l 10,0 0,10 -10,0 z M 80,20 l 10,0 0,10 -10,0 z M 120,20 l 10,0 0,10 -10,0 z M 140,20 l 10,0 0,10 -10,0 z M 180,20 l 10,0 0,10 -10,0 z M 200,20 l 10,0 0,10 -10,0 z M 210,20 l 10,0 0,10 -10,0 z M 220,20 l 10,0 0,10 -10,0 z M 230,20 l 10,0 0,10 -10,0 z M 240,20 l 10,0 0,10 -10,0 z M 250,20 l 10,0 0,10 -10,0 z M 260,20 l 10,0 0,10 -10,0 z M 20,30 l 10,0 0,10 -10,0 z M 80,30 l 10,0 0,10 -10,0 z M 100,30 l 10,0 0,10 -10,0 z M 120,30 l 10,0 0,10 -10,0 z M 170,30 l 10,0 0,10 -10,0 z M 200,30 l 10,0 0,10 -10,0 z M 260,30 l 10,0 0,10 -10,0 z M 20,40 l 10,0 0,10 -10,0 z M 40,40 l 10,0 0,10 -10,0 z M 50,40 l 10,0 0,10 -10,0 z M 60,40 l 10,0 0,10 -10,0 z M 80,40 l 10,0 0,10 -10,0 z M 140,40 l 10,0 0,10 -10,0 z M 160,40 l 10,0 0,10 -10,0 z M 170,40 l 10,0 0,10 -10,0 z M 200,40 l 10,0 0,10 -10,0 z M 220,40 l 10,0 0,10 -10,0 z M 230,40 l 10,0 0,10 -10,0 z M 240,40 l 10,0 0,10 -10,0 z M 260,40 l 10,0 0,10 -10,0 z M 20,50 l 10,0 0,10 -10,0 z M 40,50 l 10,0 0,10 -10,0 z M 50,50 l 10,0 0,10 -10,0 z M 60,50 l 10,0 0,10 -10,0 z M 80,50 l 10,0 0,10 -10,0 z M 100,50 l 10,0 0,10 -10,0 z M 110,50 l 10,0 0,10 -10,0 z M 120,50 l 10,0 0,10 -10,0 z M 140,50 l 10,0 0,10 -10,0 z M 150,50 l 10,0 0,10 -10,0 z M 160,50 l 10,0 0,10 -10,0 z M 200,50 l 10,0 0,10 -10,0 z M 220,50 l 10,0 0,10 -10,0 z M 230,50 l 10,0 0,10 -10,0 z M 240,50 l 10,0 0,10 -10,0 z M 260,50 l 10,0 0,10 -10,0 z M 20,60 l 10,0 0,10 -10,0 z M 40,60 l 10,0 0,10 -10,0 z M 50,60 l 10,0 0,10 -10,0 z M 60,60 l 10,0 0,10 -10,0 z M 80,60 l 10,0 0,10 -10,0 z M 110,60 l 10,0 0,10 -10,0 z M 160,60 l 10,0 0,10 -10,0 z M 180,60 l 10,0 0,10 -10,0 z M 200,60 l 10,0 0,10 -10,0 z M 220,60 l 10,0 0,10 -10,0 z M 230,60 l 10,0 0,10 -10,0 z M 240,60 l 10,0 0,10 -10,0 z M 260,60 l 10,0 0,10 -10,0 z M 20,70 l 10,0 0,10 -10,0 z M 80,70 l 10,0 0,10 -10,0 z M 100,70 l 10,0 0,10 -10,0 z M 110,70 l 10,0 0,10 -10,0 z M 130,70 l 10,0 0,10 -10,0 z M 140,70 l 10,0 0,10 -10,0 z M 150,70 l 10,0 0,10 -10,0 z M 170,70 l 10,0 0,10 -10,0 z M 180,70 l 10,0 0,10 -10,0 z M 200,70 l 10,0 0,10 -10,0 z M 260,70 l 10,0 0,10 -10,0 z M 20,80 l 10,0 0,10 -10,0 z M 30,80 l 10,0 0,10 -10,0 z M 40,80 l 10,0 0,10 -10,0 z M 50,80 l 10,0 0,10 -10,0 z M 60,80 l 10,0 0,10 -10,0 z M 70,80 l 10,0 0,10 -10,0 z M 80,80 l 10,0 0,10 -10,0 z M 100,80 l 10,0 0,10 -10,0 z M 120,80 l 10,0 0,10 -10,0 z M 140,80 l 10,0 0,10 -10,0 z M 160,80 l 10,0 0,10 -10,0 z M 180,80 l 10,0 0,10 -10,0 z M 200,80 l 10,0 0,10 -10,0 z M 210,80 l 10,0 0,10 -10,0 z M 220,80 l 10,0 0,10 -10,0 z M 230,80 l 10,0 0,10 -10,0 z M 240,80 l 10,0 0,10 -10,0 z M 250,80 l 10,0 0,10 -10,0 z M 260,80 l 10,0 0,10 -10,0 z M 110,90 l 10,0 0,10 -10,0 z M 120,90 l 10,0 0,10 -10,0 z M 130,90 l 10,0 0,10 -10,0 z M 170,90 l 10,0 0,10 -10,0 z M 20,100 l 10,0 0,10 -10,0 z M 30,100 l 10,0 0,10 -10,0 z M 40,100 l 10,0 0,10 -10,0 z M 50,100 l 10,0 0,10 -10,0 z M 60,100 l 10,0 0,10 -10,0 z M 80,100 l 10,0 0,10 -10,0 z M 90,100 l 10,0 0,10 -10,0 z M 100,100 l 10,0 0,10 -10,0 z M 110,100 l 10,0 0,10 -10,0 z M 130,100 l 10,0 0,10 -10,0 z M 140,100 l 10,0 0,10 -10,0 z M 150,100 l 10,0 0,10 -10,0 z M 160,100 l 10,0 0,10 -10,0 z M 170,100 l 10,0 0,10 -10,0 z M 190,100 l 10,0 0,10 -10,0 z M 210,100 l 10,0 0,10 -10,0 z M 230,100 l 10,0 0,10 -10,0 z M 250,100 l 10,0 0,10 -10,0 z M 20,110 l 10,0 0,10 -10,0 z M 30,110 l 10,0 0,10 -10,0 z M 50,110 l 10,0 0,10 -10,0 z M 60,110 l 10,0 0,10 -10,0 z M 100,110 l 10,0 0,10 -10,0 z M 120,110 l 10,0 0,10 -10,0 z M 140,110 l 10,0 0,10 -10,0 z M 150,110 l 10,0 0,10 -10,0 z M 180,110 l 10,0 0,10 -10,0 z M 190,110 l 10,0 0,10 -10,0 z M 210,110 l 10,0 0,10 -10,0 z M 250,110 l 10,0 0,10 -10,0 z M 30,120 l 10,0 0,10 -10,0 z M 40,120 l 10,0 0,10 -10,0 z M 50,120 l 10,0 0,10 -10,0 z M 60,120 l 10,0 0,10 -10,0 z M 80,120 l 10,0 0,10 -10,0 z M 90,120 l 10,0 0,10 -10,0 z M 120,120 l 10,0 0,10 -10,0 z M 170,120 l 10,0 0,10 -10,0 z M 180,120 l 10,0 0,10 -10,0 z M 190,120 l 10,0 0,10 -10,0 z M 200,120 l 10,0 0,10 -10,0 z M 210,120 l 10,0 0,10 -10,0 z M 230,120 l 10,0 0,10 -10,0 z M 250,120 l 10,0 0,10 -10,0 z M 260,120 l 10,0 0,10 -10,0 z M 30,130 l 10,0 0,10 -10,0 z M 50,130 l 10,0 0,10 -10,0 z M 90,130 l 10,0 0,10 -10,0 z M 130,130 l 10,0 0,10 -10,0 z M 160,130 l 10,0 0,10 -10,0 z M 170,130 l 10,0 0,10 -10,0 z M 180,130 l 10,0 0,10 -10,0 z M 190,130 l 10,0 0,10 -10,0 z M 260,130 l 10,0 0,10 -10,0 z M 40,140 l 10,0 0,10 -10,0 z M 50,140 l 10,0 0,10 -10,0 z M 60,140 l 10,0 0,10 -10,0 z M 80,140 l 10,0 0,10 -10,0 z M 90,140 l 10,0 0,10 -10,0 z M 100,140 l 10,0 0,10 -10,0 z M 110,140 l 10,0 0,10 -10,0 z M 120,140 l 10,0 0,10 -10,0 z M 130,140 l 10,0 0,10 -10,0 z M 140,140 l 10,0 0,10 -10,0 z M 150,140 l 10,0 0,10 -10,0 z M 160,140 l 10,0 0,10 -10,0 z M 190,140 l 10,0 0,10 -10,0 z M 200,140 l 10,0 0,10 -10,0 z M 220,140 l 10,0 0,10 -10,0 z M 240,140 l 10,0 0,10 -10,0 z M 250,140 l 10,0 0,10 -10,0 z M 260,140 l 10,0 0,10 -10,0 z M 20,150 l 10,0 0,10 -10,0 z M 40,150 l 10,0 0,10 -10,0 z M 50,150 l 10,0 0,10 -10,0 z M 60,150 l 10,0 0,10 -10,0 z M 90,150 l 10,0 0,10 -10,0 z M 130,150 l 10,0 0,10 -10,0 z M 140,150 l 10,0 0,10 -10,0 z M 160,150 l 10,0 0,10 -10,0 z M 180,150 l 10,0 0,10 -10,0 z M 210,150 l 10,0 0,10 -10,0 z M 230,150 l 10,0 0,10 -10,0 z M 250,150 l 10,0 0,10 -10,0 z M 20,160 l 10,0 0,10 -10,0 z M 40,160 l 10,0 0,10 -10,0 z M 60,160 l 10,0 0,10 -10,0 z M 80,160 l 10,0 0,10 -10,0 z M 100,160 l 10,0 0,10 -10,0 z M 110,160 l 10,0 0,10 -10,0 z M 150,160 l 10,0 0,10 -10,0 z M 170,160 l 10,0 0,10 -10,0 z M 180,160 l 10,0 0,10 -10,0 z M 190,160 l 10,0 0,10 -10,0 z M 200,160 l 10,0 0,10 -10,0 z M 220,160 l 10,0 0,10 -10,0 z M 230,160 l 10,0 0,10 -10,0 z M 250,160 l 10,0 0,10 -10,0 z M 260,160 l 10,0 0,10 -10,0 z M 20,170 l 10,0 0,10 -10,0 z M 50,170 l 10,0 0,10 -10,0 z M 130,170 l 10,0 0,10 -10,0 z M 140,170 l 10,0 0,10 -10,0 z M 160,170 l 10,0 0,10 -10,0 z M 230,170 l 10,0 0,10 -10,0 z M 260,170 l 10,0 0,10 -10,0 z M 20,180 l 10,0 0,10 -10,0 z M 40,180 l 10,0 0,10 -10,0 z M 50,180 l 10,0 0,10 -10,0 z M 60,180 l 10,0 0,10 -10,0 z M 70,180 l 10,0 0,10 -10,0 z M 80,180 l 10,0 0,10 -10,0 z M 110,180 l 10,0 0,10 -10,0 z M 130,180 l 10,0 0,10 -10,0 z M 140,180 l 10,0 0,10 -10,0 z M 150,180 l 10,0 0,10 -10,0 z M 160,180 l 10,0 0,10 -10,0 z M 180,180 l 10,0 0,10 -10,0 z M 190,180 l 10,0 0,10 -10,0 z M 200,180 l 10,0 0,10 -10,0 z M 210,180 l 10,0 0,10 -10,0 z M 220,180 l 10,0 0,10 -10,0 z M 240,180 l 10,0 0,10 -10,0 z M 100,190 l 10,0 0,10 -10,0 z M 110,190 l 10,0 0,10 -10,0 z M 120,190 l 10,0 0,10 -10,0 z M 130,190 l 10,0 0,10 -10,0 z M 150,190 l 10,0 0,10 -10,0 z M 170,190 l 10,0 0,10 -10,0 z M 180,190 l 10,0 0,10 -10,0 z M 220,190 l 10,0 0,10 -10,0 z M 230,190 l 10,0 0,10 -10,0 z M 240,190 l 10,0 0,10 -10,0 z M 20,200 l 10,0 0,10 -10,0 z M 30,200 l 10,0 0,10 -10,0 z M 40,200 l 10,0 0,10 -10,0 z M 50,200 l 10,0 0,10 -10,0 z M 60,200 l 10,0 0,10 -10,0 z M 70,200 l 10,0 0,10 -10,0 z M 80,200 l 10,0 0,10 -10,0 z M 100,200 l 10,0 0,10 -10,0 z M 120,200 l 10,0 0,10 -10,0 z M 180,200 l 10,0 0,10 -10,0 z M 200,200 l 10,0 0,10 -10,0 z M 220,200 l 10,0 0,10 -10,0 z M 230,200 l 10,0 0,10 -10,0 z M 240,200 l 10,0 0,10 -10,0 z M 250,200 l 10,0 0,10 -10,0 z M 260,200 l 10,0 0,10 -10,0 z M 20,210 l 10,0 0,10 -10,0 z M 80,210 l 10,0 0,10 -10,0 z M 110,210 l 10,0 0,10 -10,0 z M 120,210 l 10,0 0,10 -10,0 z M 180,210 l 10,0 0,10 -10,0 z M 220,210 l 10,0 0,10 -10,0 z M 230,210 l 10,0 0,10 -10,0 z M 250,210 l 10,0 0,10 -10,0 z M 20,220 l 10,0 0,10 -10,0 z M 40,220 l 10,0 0,10 -10,0 z M 50,220 l 10,0 0,10 -10,0 z M 60,220 l 10,0 0,10 -10,0 z M 80,220 l 10,0 0,10 -10,0 z M 100,220 l 10,0 0,10 -10,0 z M 110,220 l 10,0 0,10 -10,0 z M 120,220 l 10,0 0,10 -10,0 z M 150,220 l 10,0 0,10 -10,0 z M 160,220 l 10,0 0,10 -10,0 z M 170,220 l 10,0 0,10 -10,0 z M 180,220 l 10,0 0,10 -10,0 z M 190,220 l 10,0 0,10 -10,0 z M 200,220 l 10,0 0,10 -10,0 z M 210,220 l 10,0 0,10 -10,0 z M 220,220 l 10,0 0,10 -10,0 z M 230,220 l 10,0 0,10 -10,0 z M 240,220 l 10,0 0,10 -10,0 z M 20,230 l 10,0 0,10 -10,0 z M 40,230 l 10,0 0,10 -10,0 z M 50,230 l 10,0 0,10 -10,0 z M 60,230 l 10,0 0,10 -10,0 z M 80,230 l 10,0 0,10 -10,0 z M 100,230 l 10,0 0,10 -10,0 z M 110,230 l 10,0 0,10 -10,0 z M 130,230 l 10,0 0,10 -10,0 z M 150,230 l 10,0 0,10 -10,0 z M 170,230 l 10,0 0,10 -10,0 z M 180,230 l 10,0 0,10 -10,0 z M 190,230 l 10,0 0,10 -10,0 z M 200,230 l 10,0 0,10 -10,0 z M 210,230 l 10,0 0,10 -10,0 z M 220,230 l 10,0 0,10 -10,0 z M 240,230 l 10,0 0,10 -10,0 z M 250,230 l 10,0 0,10 -10,0 z M 260,230 l 10,0 0,10 -10,0 z M 20,240 l 10,0 0,10 -10,0 z M 40,240 l 10,0 0,10 -10,0 z M 50,240 l 10,0 0,10 -10,0 z M 60,240 l 10,0 0,10 -10,0 z M 80,240 l 10,0 0,10 -10,0 z M 100,240 l 10,0 0,10 -10,0 z M 110,240 l 10,0 0,10 -10,0 z M 140,240 l 10,0 0,10 -10,0 z M 180,240 l 10,0 0,10 -10,0 z M 190,240 l 10,0 0,10 -10,0 z M 210,240 l 10,0 0,10 -10,0 z M 240,240 l 10,0 0,10 -10,0 z M 260,240 l 10,0 0,10 -10,0 z M 20,250 l 10,0 0,10 -10,0 z M 80,250 l 10,0 0,10 -10,0 z M 100,250 l 10,0 0,10 -10,0 z M 110,250 l 10,0 0,10 -10,0 z M 130,250 l 10,0 0,10 -10,0 z M 160,250 l 10,0 0,10 -10,0 z M 170,250 l 10,0 0,10 -10,0 z M 180,250 l 10,0 0,10 -10,0 z M 190,250 l 10,0 0,10 -10,0 z M 200,250 l 10,0 0,10 -10,0 z M 210,250 l 10,0 0,10 -10,0 z M 220,250 l 10,0 0,10 -10,0 z M 230,250 l 10,0 0,10 -10,0 z M 260,250 l 10,0 0,10 -10,0 z M 20,260 l 10,0 0,10 -10,0 z M 30,260 l 10,0 0,10 -10,0 z M 40,260 l 10,0 0,10 -10,0 z M 50,260 l 10,0 0,10 -10,0 z M 60,260 l 10,0 0,10 -10,0 z M 70,260 l 10,0 0,10 -10,0 z M 80,260 l 10,0 0,10 -10,0 z M 100,260 l 10,0 0,10 -10,0 z M 110,260 l 10,0 0,10 -10,0 z M 130,260 l 10,0 0,10 -10,0 z M 140,260 l 10,0 0,10 -10,0 z M 150,260 l 10,0 0,10 -10,0 z M 190,260 l 10,0 0,10 -10,0 z M 200,260 l 10,0 0,10 -10,0 z M 210,260 l 10,0 0,10 -10,0 z M 220,260 l 10,0 0,10 -10,0 z M 230,260 l 10,0 0,10 -10,0 z M 240,260 l 10,0 0,10 -10,0 z M 250,260 l 10,0 0,10 -10,0 z M 260,260 l 10,0 0,10 -10,0 z " />
	</g>
</svg>
