<!DOCTYPE svg PUBLIC "-//W3C//DTD SVG 1.1//EN" "http://www.w3.org/Graphics/SVG/1.1/DTD/svg11.dtd">
<svg xmlns="http://www.w3.org/2000/svg" viewBox="123 35 338 92">
  <g id="rawfunkmaharishi">
    <g id="raw">
      <g id="r0">
        <path fill-rule="evenodd" d="M157.7 53.9c0-9.8-7.9-17.7-17.7-17.7h-16.4V46l14.8 25.6 4.2 7.2h15.2l-6.5-11.2c3.9-3.3 6.4-8.2 6.4-13.7zm-17.7 4h-2.7v-8.1h2.7c2.2 0 4 1.8 4 4 .1 2.3-1.7 4.1-4 4.1z"/>
        <path d="M123.6 78.8h13.7V75l-13.7-23.7v27.5z"/>
      </g>
      <path id="a0" d="M197.7 78.8l-24.6-42.6-18.5 32 6.1 10.6h2.9l9.4-16.3 9.4 16.3h15.3z"/>
      <path id="w" d="M210.2 62.4l9.4 16.4 24.6-42.6H229l-9.4 16.3-9.4-16.3-9.4 16.3-9.4-16.3h-15.2l24.6 42.6 9.4-16.4z"/>
    </g>
    <g id="funk">
      <path id="f" d="M264.3 63.3h9.2l6.1-10.5h-15.2v-3h17l7.9-13.7h-38.5v42.6h13.7V63.3z"/>
      <path id="u" d="M276.6 63.1c1 8.8 8.5 15.7 17.6 15.7 9.8 0 17.7-7.9 17.7-17.7V36.2h-13.7v24.9c0 2.2-1.8 4-4 4s-4-1.8-4-4V39.7l-13.6 23.4z"/>
      <path id="n" d="M328.2 65.2L348.7 83V36.1H335v17.7l-20.4-17.7v42.6h13.7V65.2z"/>
      <g id="k">
        <path d="M368.5 65.2l24.8-28.7.3-.4h-18.1L365 48.9V36.1h-13.7v42.7H365v-9.5l3.5-4.1z"/>
        <path d="M369.6 67.9l8.1 10.9h16.7L378.2 58l-8.6 9.9z"/>
      </g>
    </g>
    <g id="maharishi">
      <path id="m" d="M210.2 98l-9.4-16.4-24.6 42.6h15.2l9.4-16.3 9.4 16.3 9.4-16.3 9.4 16.3h15.2l-24.6-42.6-9.4 16.4z"/>
      <path id="ah" d="M213.9 124.3h12.4l-6.2-10.7-6.2 10.7zM281 98.6h-8.8v-17h-13.7v36.2l-20.9-36.2-7.6 13.2 17 29.5h25.2v-12h5.2l3.6-6.2v18.3h13.7V81.7H281v16.9z"/>
      <path id="a1" d="M297.3 96.4v26.3l8.5-14.7 9.4 16.3h15.2l-24.6-42.6-8.5 14.7z"/>
      <path id="r1" fill-rule="evenodd" d="M348.7 99.4c0-9.8-7.9-17.7-17.7-17.7h-16.4v9.9l14.8 25.6 4.2 7.2h15.2l-6.5-11.2c3.8-3.4 6.4-8.3 6.4-13.8zm-17.7 4h-2.7v-8.1h2.7c2.2 0 4 1.8 4 4 0 2.3-1.8 4.1-4 4.1z"/>
      <path id="i0" d="M351.3 124.3H365V81.7h-13.7v42.6z"/>
      <path id="s" d="M382 94.5c0-1.1.7-1.9 3.2-1.9 4 0 8.7 1.4 12.3 4.2l6.8-9.1c-4.8-4-10.9-5.9-17.8-5.9-11.5 0-17.4 6.9-17.4 14.1 0 16.8 23.4 12.7 23.4 16.7 0 1.7-2.3 2.3-4.7 2.3-5.7 0-10.4-2.4-13.5-5.5l-6.6 9.6c4.5 4.1 10.6 6.8 19.5 6.8 11.3 0 18.1-5.4 18.1-14.8 0-16-23.3-12.5-23.3-16.5z"/>
      <path id="h" d="M430.4 98.6h-8.8v-17H408v42.6h13.7v-12h5.2l3.6-6.2v18.3h13.7V81.7h-13.7v16.9z"/>
      <path id="i1" d="M446.7 81.7v42.6h13.7V81.7h-13.7z"/>
    </g>
  </g>
</svg>
